<?xml version="1.0" encoding="utf-8"?>
<!-- Generator: Adobe Illustrator 24.2.1, SVG Export Plug-In . SVG Version: 6.00 Build 0)  -->
<svg version="1.1" id="Layer_2_1_" xmlns="http://www.w3.org/2000/svg" xmlns:xlink="http://www.w3.org/1999/xlink" x="0px" y="0px"
	 viewBox="0 0 1200 1200" style="enable-background:new 0 0 1200 1200;" xml:space="preserve">
<style type="text/css">
	.st0{fill:#23425F;}
	.st1{fill:#FFAB5E;}
	.st2{fill:#2D5677;}
	.st3{fill:#00B5D4;}
	.st4{fill:#EAA58B;}
	.st5{fill:#A64942;}
	.st6{fill:#FD8369;}
	.st7{fill:#413E42;}
	.st8{fill:#FFFFFF;}
	.st9{font-family:'Poppins-Bold';}
	.st10{font-size:35.7137px;}
</style>
<path d="M859.39,596.92v501.9c0,36.73-29.69,66.42-66.42,66.42l0,0H402.9c-36.73,0-66.42-29.69-66.42-66.42l0,0V103
	c0-36.73,29.69-66.42,66.42-66.42h390.06c36.73,0,66.42,29.69,66.42,66.42l0,0L859.39,596.92"/>
<path class="st0" d="M763.4,1186.24l-86.25-119.46c0,0-48.58-67.12-79.09-68.3c-0.23,17.6,0.94,143.87,6.34,187.64H763.4V1186.24z"
	/>
<path class="st1" d="M477.99,10.29h223.9c10.21,0,18.42,8.21,18.42,18.42V57c0,10.21-8.21,18.42-18.42,18.42h-223.9
	c-10.21,0-18.42-8.21-18.42-18.42V28.72C459.56,18.63,467.78,10.29,477.99,10.29z"/>
<path class="st2" d="M843.43,1167.11h15.96V972.78l-134.48-22.3L597.94,998.6c5.98,13.61,37.55,103.97,105.26,183.06h140.11v-14.55
	H843.43z"/>
<g>
	<path class="st3" d="M591.07,351.67c0,11-9,20-20,20H387.49c-11,0-20-9-20-20V298.9c0-11,9-20,20-20h183.57c11,0,20,9,20,20V351.67
		z"/>
</g>
<path class="st4" d="M560.5,690.44c-10.91-0.23-10.91,16.55-10.91,16.55c-5.28-15.72-120.52-302.41-120.52-302.41
	s-23.82,10.09,3.64,64.31c-8.92,5.28-33.68,25.11-23.47,57.03c7.74,23.94,24.64,32.39,35.2,32.39
	c-1.76,17.95,36.61,201.37,41.66,210.17c11.73,20.77,34.38,43.42,47.76,44.01c21.36,1.06,73.93-26.99,86.95-41.66
	C633.85,756.16,581.04,690.79,560.5,690.44z"/>
<path class="st5" d="M719.16,589.29c-51.99-46.35-178.84,64.66-176.37,83.9c2.46,19.25,70.76,88.83,90.83,82.97
	C653.68,750.29,760.11,625.67,719.16,589.29z"/>
<path class="st1" d="M859.39,596.92c-23.12-37.43-57.03-61.61-105.61-61.61c-168.63,0-173.44,438.88-155.84,463.29
	c15.61,21.59,201.6,27.22,261.45,12.32"/>
<path class="st4" d="M859.39,757.1l-17.72,7.28c1.53,5.63,8.33,37.2,17.72,72.05"/>
<path class="st5" d="M859.39,593.04c-11.73-8.68-23.7-12.2-34.73-7.63c-63.6,26.52-18.31,186,0,191.86c5.87,1.88,19.25,0,34.73-4.11
	"/>
<path class="st4" d="M786.16,573.8c0,13.96-77.33,17.02-77.33,0v-95.05h77.33V573.8z"/>
<ellipse transform="matrix(0.3697 -0.9292 0.9292 0.3697 57.4789 961.2082)" class="st4" cx="737.2" cy="438.24" rx="94.23" ry="70.06"/>
<ellipse transform="matrix(0.5823 -0.813 0.813 0.5823 -49.9404 845.3221)" class="st4" cx="797.64" cy="471.26" rx="22.18" ry="15.49"/>
<path class="st6" d="M862.67,426.64c0-12.91-12.09-27.11-14.32-43.3c-1.17-8.21,1.41-42.36-8.21-53.98
	c-19.95-23.94-31.68-19.01-46.94-24.64c-26.52-9.74-36.73-25.82-58.67-25.82c-24.88,0-34.97,12.91-52.81,12.91
	c-20.42,0-37.08-9.39-65.71-9.39c-15.26,0-35.2,19.95-35.2,37.55c0,41.66,38.72,35.67,38.72,45.77c0,7.04-2.35,12.67-2.35,22.3
	c0,12.67,16.43,19.95,25.82,19.95c28.63,0,32.39-3.52,32.39-3.52c5.63-11.38,12.91-21.83,21.59-31.1
	c1.17-1.17,19.71,11.85,49.99,12.91c24.88,0.82,42.36,5.63,42.36,17.25c0,8.21-3.05,32.51-2.82,39.31
	c0.23,6.81,2.58,11.27,4.11,11.27s2.35-2.23,11.97-2.23c10.21,0,11.03,12.56,12.79,12.56C825.71,464.43,862.67,456.1,862.67,426.64z
	"/>
<path class="st7" d="M795.08,0.79H400.91c-53.04,0-96.11,43.07-96.11,96.11v1007.78c0,53.04,43.07,96.11,96.11,96.11l0,0h394.17
	c53.04,0,96.11-43.07,96.11-96.11V96.9C891.19,43.86,848.12,0.79,795.08,0.79z M859.39,596.92v501.9
	c0,36.73-29.69,66.42-66.42,66.42l0,0H402.9c-36.73,0-66.42-29.69-66.42-66.42l0,0V103c0-36.73,29.69-66.42,66.42-66.42h390.06
	c36.73,0,66.42,29.69,66.42,66.42l0,0L859.39,596.92L859.39,596.92z"/>
<path class="st3" d="M856.1,149.94h142.34c25.7,0,46.59,20.89,46.59,46.59l0,0c0,25.7-20.89,46.59-46.59,46.59H856.1
	c-25.7,0-46.59-20.89-46.59-46.59l0,0C809.52,170.71,830.4,149.94,856.1,149.94z"/>
<polygon class="st3" points="864.9,221.4 824.54,180.92 824.54,261.89 "/>
<circle class="st1" cx="879.22" cy="198.05" r="11.73"/>
<circle class="st1" cx="927.33" cy="198.05" r="11.73"/>
<circle class="st1" cx="975.33" cy="198.05" r="11.73"/>
<text transform="matrix(1 0 0 1 406 339.7612)" class="st8 st9 st10">11:00 AM</text>
</svg>
