<?xml version="1.0" encoding="utf-8"?>
<!-- Generator: Adobe Illustrator 24.2.1, SVG Export Plug-In . SVG Version: 6.00 Build 0)  -->
<svg version="1.1" id="Layer_1" xmlns="http://www.w3.org/2000/svg" xmlns:xlink="http://www.w3.org/1999/xlink" x="0px" y="0px"
	 viewBox="0 0 1280 1024" style="enable-background:new 0 0 1280 1024;" xml:space="preserve">
<style type="text/css">
	.st0{fill:#6D432C;}
	.st1{fill:#F9D146;}
	.st2{clip-path:url(#SVGID_2_);}
	.st3{clip-path:url(#SVGID_4_);}
	.st4{clip-path:url(#SVGID_6_);}
	.st5{clip-path:url(#SVGID_18_);}
	.st6{clip-path:url(#SVGID_20_);enable-background:new    ;}
	.st7{clip-path:url(#SVGID_22_);enable-background:new    ;}
	.st8{clip-path:url(#SVGID_24_);}
	.st9{fill:#56B4D0;}
	.st10{fill:#FFFFFF;}
	.st11{clip-path:url(#SVGID_28_);}
	.st12{clip-path:url(#SVGID_30_);}
	.st13{clip-path:url(#SVGID_32_);}
	.st14{clip-path:url(#SVGID_34_);}
	.st15{clip-path:url(#SVGID_36_);}
	.st16{clip-path:url(#SVGID_38_);}
	.st17{fill:#753410;}
	.st18{fill:#D69B87;}
	.st19{fill:#18559E;}
	.st20{fill:#14487C;}
	.st21{fill:none;stroke:#000000;stroke-width:2;stroke-miterlimit:10;}
	.st22{fill:#F8F8F8;}
</style>
<g>
	<path class="st0" d="M501,433.88c-1.48,2.95-1.18,6.12,0.67,7.04c1.85,0.92,4.57-0.73,6.05-3.68l33.67-67.11
		c1.48-2.95,1.18-6.12-0.67-7.04c-1.85-0.92-4.57,0.73-6.05,3.68L501,433.88z"/>
</g>
<path class="st1" d="M575.24,648.13c29.55,10.22,77.95,22.22,136.44,15.18c23.4-2.81,43.83-8.12,60.82-13.95
	c1.73-20.96,3.09-42.78,3.96-65.41c0.8-20.74,1.14-40.83,1.11-60.22c0.29-22.43-1.83-57.89-16.32-97.99
	c-13.89-38.43-28.07-77.68-58.41-83.27c-28.2-5.2-62.33,20.16-83.44,60.74c-7.02,15.37-13.68,32.02-19.63,49.96
	C575.12,527.52,571.99,595.87,575.24,648.13z"/>
<g>
	<g>
		<g>
			<defs>
				<path id="SVGID_1_" d="M613.86,412.69c21.58,3.65,43.52,8.22,64.99,10.6c-1.58,12.24-2.75,25.12-7.35,35.95
					c-18.88-3.55-42.88-3.48-63.11-7.88C608.38,439.23,612.39,426.03,613.86,412.69z"/>
			</defs>
			<clipPath id="SVGID_2_">
				<use xlink:href="#SVGID_1_"  style="overflow:visible;"/>
			</clipPath>
			<g class="st2">
				<defs>
					<path id="SVGID_3_" d="M613.86,412.69c21.58,3.65,43.52,8.22,64.99,10.6c-1.58,12.24-2.75,25.12-7.35,35.95
						c-18.88-3.55-42.88-3.48-63.11-7.88C608.38,439.23,612.39,426.03,613.86,412.69z"/>
				</defs>
				<clipPath id="SVGID_4_">
					<use xlink:href="#SVGID_3_"  style="overflow:visible;"/>
				</clipPath>
				<g class="st3">
					<g>
						<defs>
							<path id="SVGID_5_" d="M608.83,445.3c20.37,4.65,44.5,6.04,64.21,8.41c2-6.41,3.13-13.34,4.02-20.29
								c-21.09-1.49-43.91-5.51-64.7-9.79C611.04,431.04,609.47,438.31,608.83,445.3z"/>
						</defs>
						<clipPath id="SVGID_6_">
							<use xlink:href="#SVGID_5_"  style="overflow:visible;"/>
						</clipPath>
						<g class="st4">
							<g>
								<defs>
									<path id="SVGID_7_" d="M608.83,445.3c7.01,1.99,14.39,2.96,21.9,3.82c0.94-6.48,2.29-13.71,3.53-21.26
										c-7.42-1.27-14.73-2.66-21.89-4.22C611.04,431.04,609.47,438.31,608.83,445.3z"/>
								</defs>
								<clipPath id="SVGID_8_">
									<use xlink:href="#SVGID_7_"  style="overflow:visible;"/>
								</clipPath>
							</g>
						</g>
						<g class="st4">
							<g>
								<defs>
									<path id="SVGID_9_" d="M615.3,446.85C615.3,446.85,615.3,446.85,615.3,446.85c0.72-6.96,2.26-14.31,3.62-21.85
										C617.56,432.54,616.02,439.89,615.3,446.85z"/>
								</defs>
								<clipPath id="SVGID_10_">
									<use xlink:href="#SVGID_9_"  style="overflow:visible;"/>
								</clipPath>
							</g>
						</g>
						<g class="st4">
							<g>
								<defs>
									<path id="SVGID_11_" d="M630.73,449.12c7.95,0.88,16.08,1.69,23.93,2.7c1.37-6.03,2.44-13.01,3.39-20.3
										c-7.93-1.08-15.92-2.32-23.78-3.66C633.01,435.4,631.67,442.63,630.73,449.12z"/>
								</defs>
								<clipPath id="SVGID_12_">
									<use xlink:href="#SVGID_11_"  style="overflow:visible;"/>
								</clipPath>
							</g>
						</g>
						<g class="st4">
							<g>
								<defs>
									<path id="SVGID_13_" d="M654.65,451.82c2.45,0.31,4.88,0.62,7.26,0.91c1.59-6.12,2.64-13.09,3.53-20.28
										c-2.45-0.28-4.93-0.59-7.4-0.93C657.1,438.81,656.02,445.79,654.65,451.82z"/>
								</defs>
								<clipPath id="SVGID_14_">
									<use xlink:href="#SVGID_13_"  style="overflow:visible;"/>
								</clipPath>
							</g>
						</g>
						<g class="st4">
							<g>
								<defs>
									<path id="SVGID_15_" d="M660.92,452.61c4.17,0.51,8.22,0.98,12.12,1.1c2-6.41,3.13-13.34,4.02-20.29
										c-4.12-0.19-8.35-0.6-12.63-1.1C663.54,439.54,662.48,446.5,660.92,452.61z"/>
								</defs>
								<clipPath id="SVGID_16_">
									<use xlink:href="#SVGID_15_"  style="overflow:visible;"/>
								</clipPath>
							</g>
						</g>
					</g>
				</g>
			</g>
		</g>
	</g>
	<g>
		<g>
			<defs>
				<path id="SVGID_17_" d="M613.86,412.69c21.58,3.65,43.52,8.22,64.99,10.6c-1.58,12.24-2.75,25.12-7.35,35.95
					c-18.88-3.55-42.88-3.48-63.11-7.88C608.38,439.23,612.39,426.03,613.86,412.69z"/>
			</defs>
			<clipPath id="SVGID_18_">
				<use xlink:href="#SVGID_17_"  style="overflow:visible;"/>
			</clipPath>
			<g class="st5">
				<defs>
					<path id="SVGID_19_" d="M613.86,412.69c21.58,3.65,43.52,8.22,64.99,10.6c-1.58,12.24-2.75,25.12-7.35,35.95
						c-18.88-3.55-42.88-3.48-63.11-7.88C608.38,439.23,612.39,426.03,613.86,412.69z"/>
				</defs>
				<clipPath id="SVGID_20_">
					<use xlink:href="#SVGID_19_"  style="overflow:visible;"/>
				</clipPath>
				<g class="st6">
					<g>
						<defs>
							<path id="SVGID_21_" d="M608.83,445.3c20.37,4.65,44.5,6.04,64.21,8.41c2-6.41,3.13-13.34,4.02-20.29
								c-21.09-1.49-43.91-5.51-64.7-9.79C611.04,431.04,609.47,438.31,608.83,445.3z"/>
						</defs>
						<clipPath id="SVGID_22_">
							<use xlink:href="#SVGID_21_"  style="overflow:visible;"/>
						</clipPath>
						<g class="st7">
							<g>
								<defs>
									<path id="SVGID_23_" d="M608.83,445.3c7.01,1.99,14.39,2.96,21.9,3.82c0.94-6.48,2.29-13.71,3.53-21.26
										c-7.42-1.27-14.73-2.66-21.89-4.22C611.04,431.04,609.47,438.31,608.83,445.3z"/>
								</defs>
								<clipPath id="SVGID_24_">
									<use xlink:href="#SVGID_23_"  style="overflow:visible;"/>
								</clipPath>
								<g class="st8">
									<path class="st9" d="M610.36,439.86c0.65-4.35,1.52-8.8,2.36-13.3c1.78,0.4,3.57,0.79,5.37,1.16
										c-0.11,0.61-0.23,1.23-0.34,1.84c-1.2-0.25-2.39-0.51-3.58-0.77c-0.26,1.37-0.51,2.73-0.76,4.09
										c1.03,0.24,2.07,0.47,3.11,0.69c-0.11,0.61-0.22,1.21-0.33,1.81c-1.04-0.22-2.08-0.46-3.11-0.7
										c-0.34,1.9-0.66,3.78-0.94,5.64C611.54,440.17,610.95,440.02,610.36,439.86z"/>
								</g>
								<g class="st8">
									<path class="st10" d="M618.56,431.16c0.1-0.55,0.28-1.01,0.54-1.4c0.26-0.38,0.56-0.69,0.91-0.91
										c0.33-0.21,0.7-0.35,1.09-0.42c0.39-0.07,0.77-0.07,1.14,0c0.37,0.07,0.73,0.21,1.07,0.43c0.34,0.21,0.63,0.48,0.89,0.81
										c0.24,0.34,0.41,0.73,0.51,1.19c0.1,0.45,0.11,0.96,0.01,1.5c-0.43,2.39-0.86,4.75-1.25,7.06
										c-0.09,0.55-0.26,1.01-0.51,1.37c-0.25,0.36-0.54,0.64-0.87,0.85c-0.34,0.22-0.71,0.36-1.1,0.43
										c-0.39,0.07-0.77,0.07-1.14,0c-0.37-0.07-0.73-0.2-1.08-0.41c-0.35-0.2-0.64-0.47-0.88-0.8c-0.26-0.32-0.45-0.69-0.56-1.12
										c-0.12-0.43-0.13-0.93-0.03-1.48C617.68,435.91,618.11,433.55,618.56,431.16z M619.11,438.61
										c-0.08,0.46-0.01,0.82,0.2,1.08c0.21,0.26,0.49,0.42,0.82,0.49c0.34,0.06,0.65,0.01,0.93-0.16
										c0.28-0.17,0.46-0.48,0.54-0.94c0.39-2.32,0.82-4.68,1.26-7.07c0.09-0.47,0.03-0.84-0.18-1.11
										c-0.21-0.27-0.48-0.44-0.81-0.5c-0.34-0.07-0.65-0.01-0.93,0.16c-0.29,0.18-0.47,0.5-0.56,0.97
										C619.94,433.92,619.51,436.28,619.11,438.61z"/>
									<path class="st10" d="M626.23,432.63c0.1-0.55,0.28-1.01,0.53-1.4c0.26-0.39,0.56-0.7,0.91-0.93
										c0.34-0.22,0.71-0.36,1.1-0.44c0.39-0.07,0.78-0.08,1.16-0.01c0.38,0.07,0.74,0.2,1.08,0.41c0.35,0.21,0.65,0.47,0.91,0.79
										c0.24,0.33,0.42,0.72,0.53,1.17c0.11,0.45,0.12,0.95,0.03,1.49c-0.41,2.37-0.81,4.69-1.2,6.96
										c-0.09,0.54-0.26,0.99-0.51,1.35c-0.25,0.35-0.54,0.64-0.88,0.84c-0.35,0.22-0.72,0.36-1.12,0.44
										c-0.4,0.08-0.78,0.09-1.16,0.03c-0.38-0.06-0.75-0.18-1.1-0.37c-0.35-0.19-0.65-0.44-0.9-0.75
										c-0.26-0.3-0.46-0.66-0.57-1.08c-0.12-0.42-0.13-0.9-0.04-1.46C625.38,437.37,625.8,435.02,626.23,432.63z M626.86,439.98
										c-0.08,0.45-0.01,0.8,0.21,1.05c0.21,0.25,0.49,0.4,0.84,0.45c0.34,0.05,0.66-0.01,0.95-0.18
										c0.29-0.17,0.47-0.48,0.54-0.93c0.39-2.28,0.8-4.61,1.21-6.99c0.08-0.47,0.02-0.83-0.19-1.1
										c-0.21-0.27-0.49-0.43-0.83-0.49c-0.34-0.06-0.66,0-0.94,0.18c-0.29,0.18-0.47,0.5-0.56,0.97
										C627.66,435.34,627.25,437.69,626.86,439.98z"/>
								</g>
							</g>
						</g>
						<g class="st7">
							<g>
								<defs>
									<path id="SVGID_25_" d="M615.3,446.85C615.3,446.85,615.3,446.85,615.3,446.85c0.72-6.96,2.26-14.31,3.62-21.85
										C617.56,432.54,616.02,439.89,615.3,446.85z"/>
								</defs>
								<clipPath id="SVGID_26_">
									<use xlink:href="#SVGID_25_"  style="overflow:visible;"/>
								</clipPath>
							</g>
						</g>
						<g class="st7">
							<g>
								<defs>
									<path id="SVGID_27_" d="M630.73,449.12c7.95,0.88,16.08,1.69,23.93,2.7c1.37-6.03,2.44-13.01,3.39-20.3
										c-7.93-1.08-15.92-2.32-23.78-3.66C633.01,435.4,631.67,442.63,630.73,449.12z"/>
								</defs>
								<clipPath id="SVGID_28_">
									<use xlink:href="#SVGID_27_"  style="overflow:visible;"/>
								</clipPath>
								<g class="st11">
									<path class="st9" d="M632.45,443.89c0.69-4.16,1.46-8.57,2.23-13.11c0.92,0.15,1.84,0.31,2.77,0.45
										c1.08,0.17,1.85,0.61,2.31,1.3c0.46,0.69,0.61,1.59,0.43,2.68c-0.34,2.07-0.68,4.09-1.01,6.06c-0.2,1.18-0.65,2-1.34,2.47
										c-0.7,0.47-1.61,0.63-2.74,0.49C634.21,444.12,633.33,444.01,632.45,443.89z M636.24,432.91c-0.55,3.28-1.1,6.48-1.62,9.54
										c0.29,0.04,0.58,0.08,0.88,0.12c0.53,0.07,0.93,0,1.2-0.23c0.27-0.22,0.44-0.6,0.54-1.15c0.34-2.04,0.7-4.13,1.05-6.27
										c0.09-0.52,0.05-0.95-0.11-1.27c-0.16-0.32-0.52-0.53-1.07-0.61C636.82,433,636.53,432.96,636.24,432.91z"/>
									<path class="st9" d="M641.9,435.17c0.09-0.53,0.25-0.99,0.51-1.38c0.25-0.39,0.55-0.69,0.9-0.92
										c0.34-0.22,0.7-0.37,1.1-0.45c0.4-0.08,0.79-0.09,1.17-0.04c0.38,0.06,0.75,0.18,1.1,0.38c0.35,0.19,0.67,0.44,0.94,0.75
										c0.26,0.32,0.45,0.69,0.57,1.13c0.12,0.44,0.14,0.92,0.07,1.44c-0.35,2.31-0.71,4.56-1.08,6.74
										c-0.09,0.52-0.26,0.95-0.51,1.29c-0.25,0.34-0.55,0.61-0.89,0.81c-0.35,0.21-0.73,0.35-1.13,0.43
										c-0.4,0.08-0.8,0.09-1.18,0.04c-0.39-0.05-0.76-0.16-1.12-0.33c-0.36-0.17-0.67-0.4-0.92-0.69
										c-0.27-0.28-0.47-0.62-0.59-1.01c-0.12-0.39-0.14-0.85-0.05-1.38C641.14,439.78,641.52,437.5,641.9,435.17z M642.68,442.23
										c-0.07,0.43,0,0.77,0.22,1c0.22,0.24,0.5,0.37,0.85,0.42c0.35,0.04,0.67-0.02,0.96-0.19c0.29-0.17,0.47-0.47,0.54-0.9
										c0.37-2.19,0.73-4.44,1.09-6.76c0.07-0.45-0.01-0.81-0.22-1.06c-0.22-0.25-0.5-0.41-0.85-0.46
										c-0.35-0.05-0.66,0.02-0.95,0.19c-0.29,0.18-0.47,0.5-0.54,0.96C643.42,437.77,643.05,440.04,642.68,442.23z"/>
									<path class="st9" d="M648.27,445.89c0.71-3.98,1.39-8.26,2.03-12.7c0.6,0.09,1.21,0.17,1.81,0.26
										c0.57,2.8,1.14,5.53,1.68,8.17c0.01,0,0.02,0,0.04,0c0.41-2.51,0.79-5.11,1.16-7.77c0.63,0.08,1.26,0.17,1.88,0.25
										c-0.6,4.4-1.25,8.65-2,12.6c-0.59-0.07-1.18-0.14-1.78-0.22c-0.52-2.5-1.08-5.11-1.65-7.81c-0.01,0-0.03,0-0.04,0
										c-0.4,2.57-0.81,5.07-1.25,7.45C649.54,446.04,648.9,445.96,648.27,445.89z"/>
								</g>
							</g>
						</g>
						<g class="st7">
							<g>
								<defs>
									<path id="SVGID_29_" d="M654.65,451.82c2.45,0.31,4.88,0.62,7.26,0.91c1.59-6.12,2.64-13.09,3.53-20.28
										c-2.45-0.28-4.93-0.59-7.4-0.93C657.1,438.81,656.02,445.79,654.65,451.82z"/>
								</defs>
								<clipPath id="SVGID_30_">
									<use xlink:href="#SVGID_29_"  style="overflow:visible;"/>
								</clipPath>
								<g class="st12">
									<path class="st9" d="M655.73,446.8c1.73-3.84,3.36-7.97,4.92-12.23c0.52,0.06,1.04,0.13,1.56,0.19
										c0.39,4.48,0.73,8.81,0.87,12.89c-0.61-0.07-1.23-0.13-1.85-0.2c-0.01-0.87-0.03-1.76-0.05-2.66
										c-0.85-0.09-1.69-0.19-2.55-0.29c-0.34,0.85-0.68,1.7-1.03,2.52C656.98,446.95,656.36,446.88,655.73,446.8z M661.12,443.09
										c-0.05-1.53-0.12-3.1-0.2-4.68c-0.01,0-0.03,0-0.04,0c-0.53,1.52-1.08,3.01-1.63,4.47
										C659.87,442.95,660.5,443.02,661.12,443.09z"/>
								</g>
							</g>
						</g>
						<g class="st7">
							<g>
								<defs>
									<path id="SVGID_31_" d="M660.92,452.61c4.17,0.51,8.22,0.98,12.12,1.1c2-6.41,3.13-13.34,4.02-20.29
										c-4.12-0.19-8.35-0.6-12.63-1.1C663.54,439.54,662.48,446.5,660.92,452.61z"/>
								</defs>
								<clipPath id="SVGID_32_">
									<use xlink:href="#SVGID_31_"  style="overflow:visible;"/>
								</clipPath>
								<g class="st13">
									<path class="st9" d="M664.2,447.77c0.71-3.45,1.3-7.08,1.81-10.81c-0.71-0.07-1.43-0.15-2.15-0.23
										c0.08-0.58,0.16-1.17,0.24-1.75c2.06,0.23,4.1,0.44,6.12,0.61c-0.08,0.58-0.16,1.16-0.24,1.74
										c-0.71-0.06-1.41-0.12-2.13-0.18c-0.51,3.72-1.1,7.35-1.83,10.81C665.41,447.89,664.81,447.83,664.2,447.77z"/>
									<path class="st9" d="M668.9,448.2c0.89-4.02,1.55-8.24,2.12-12.54c1.82,0.14,3.61,0.26,5.39,0.32
										c-0.08,0.57-0.16,1.14-0.24,1.71c-1.18-0.04-2.36-0.1-3.56-0.17c-0.18,1.25-0.36,2.49-0.56,3.73
										c1.04,0.06,2.07,0.11,3.09,0.13c-0.1,0.56-0.19,1.13-0.3,1.69c-1.02-0.03-2.04-0.07-3.08-0.13
										c-0.21,1.22-0.44,2.44-0.69,3.64c1.18,0.07,2.34,0.12,3.5,0.14c-0.13,0.59-0.26,1.17-0.4,1.75
										C672.44,448.43,670.68,448.33,668.9,448.2z"/>
								</g>
							</g>
						</g>
					</g>
				</g>
			</g>
		</g>
	</g>
	<g>
		<g>
			<defs>
				<path id="SVGID_33_" d="M613.86,412.69c21.58,3.65,43.52,8.22,64.99,10.6c-1.58,12.24-2.75,25.12-7.35,35.95
					c-18.88-3.55-42.88-3.48-63.11-7.88C608.38,439.23,612.39,426.03,613.86,412.69z"/>
			</defs>
			<clipPath id="SVGID_34_">
				<use xlink:href="#SVGID_33_"  style="overflow:visible;"/>
			</clipPath>
			<g class="st14">
				<defs>
					<path id="SVGID_35_" d="M613.86,412.69c21.58,3.65,43.52,8.22,64.99,10.6c-1.58,12.24-2.75,25.12-7.35,35.95
						c-18.88-3.55-42.88-3.48-63.11-7.88C608.38,439.23,612.39,426.03,613.86,412.69z"/>
				</defs>
				<clipPath id="SVGID_36_">
					<use xlink:href="#SVGID_35_"  style="overflow:visible;"/>
				</clipPath>
				<g class="st15">
					<g>
						<defs>
							<path id="SVGID_37_" d="M608.83,445.3c20.37,4.65,44.5,6.04,64.21,8.41c2-6.41,3.13-13.34,4.02-20.29
								c-21.09-1.49-43.91-5.51-64.7-9.79C611.04,431.04,609.47,438.31,608.83,445.3z"/>
						</defs>
						<clipPath id="SVGID_38_">
							<use xlink:href="#SVGID_37_"  style="overflow:visible;"/>
						</clipPath>
						<g class="st16">
							<g>
								<defs>
									<path id="SVGID_39_" d="M608.83,445.3c7.01,1.99,14.39,2.96,21.9,3.82c0.94-6.48,2.29-13.71,3.53-21.26
										c-7.42-1.27-14.73-2.66-21.89-4.22C611.04,431.04,609.47,438.31,608.83,445.3z"/>
								</defs>
								<clipPath id="SVGID_40_">
									<use xlink:href="#SVGID_39_"  style="overflow:visible;"/>
								</clipPath>
							</g>
						</g>
						<g class="st16">
							<g>
								<defs>
									<path id="SVGID_41_" d="M615.3,446.85C615.3,446.85,615.3,446.85,615.3,446.85c0.72-6.96,2.26-14.31,3.62-21.85
										C617.56,432.54,616.02,439.89,615.3,446.85z"/>
								</defs>
								<clipPath id="SVGID_42_">
									<use xlink:href="#SVGID_41_"  style="overflow:visible;"/>
								</clipPath>
							</g>
						</g>
						<g class="st16">
							<g>
								<defs>
									<path id="SVGID_43_" d="M630.73,449.12c7.95,0.88,16.08,1.69,23.93,2.7c1.37-6.03,2.44-13.01,3.39-20.3
										c-7.93-1.08-15.92-2.32-23.78-3.66C633.01,435.4,631.67,442.63,630.73,449.12z"/>
								</defs>
								<clipPath id="SVGID_44_">
									<use xlink:href="#SVGID_43_"  style="overflow:visible;"/>
								</clipPath>
							</g>
						</g>
						<g class="st16">
							<g>
								<defs>
									<path id="SVGID_45_" d="M654.65,451.82c2.45,0.31,4.88,0.62,7.26,0.91c1.59-6.12,2.64-13.09,3.53-20.28
										c-2.45-0.28-4.93-0.59-7.4-0.93C657.1,438.81,656.02,445.79,654.65,451.82z"/>
								</defs>
								<clipPath id="SVGID_46_">
									<use xlink:href="#SVGID_45_"  style="overflow:visible;"/>
								</clipPath>
							</g>
						</g>
						<g class="st16">
							<g>
								<defs>
									<path id="SVGID_47_" d="M660.92,452.61c4.17,0.51,8.22,0.98,12.12,1.1c2-6.41,3.13-13.34,4.02-20.29
										c-4.12-0.19-8.35-0.6-12.63-1.1C663.54,439.54,662.48,446.5,660.92,452.61z"/>
								</defs>
								<clipPath id="SVGID_48_">
									<use xlink:href="#SVGID_47_"  style="overflow:visible;"/>
								</clipPath>
							</g>
						</g>
					</g>
				</g>
			</g>
		</g>
	</g>
</g>
<path class="st1" d="M665.35,472.4c0,0,31.69,44.88,79.68,48.5c0,0,25.35-29.82,32.9-75.91c0,0,8.75-60.85-28.98-61.15
	C748.96,383.84,700.67,376.91,665.35,472.4z"/>
<path class="st17" d="M640.16,229.58c0,0-18.01-23.96,6.78-40.11c0,0,13.31-8.85,36.27,7.29c1.1,0.86,2.68,1.88,4.76,2.54
	c5.41,1.71,10.17-0.24,11.63-0.91c1.93-1.06,5.83-2.81,10.59-2.21c7.34,0.92,13.67,7,16.08,15.43c0.9,2.78,2.36,6.34,4.76,10.12
	c2.77,4.37,5.83,7.51,8.22,9.62c3.28,2.45,7.72,6.55,10.8,12.81c8.52,17.32-1.17,35.33-2.38,37.5c0,0-19.83,39.33-37.58,13.54
	l-40.71-41.15C669.38,254.06,649.55,244.42,640.16,229.58z"/>
<path class="st18" d="M712.72,361.36c0,0-13,9.24-31.9,1.38l2.95-28.5c0,0-36.63-4.91-28.35-60.92c0,0,2.36-17.29,18.12-34.59
	L706,259.7c0,0,9.98,6.98,10.98,22.67c0,0,6.32-6.06,12.9,0.91c0,0,6.66,6.06,1.08,13.7c0,0-5.16,7.72-10.9,3.16l1.5,6.48
	l-5.99,11.38L712.72,361.36z"/>
<path class="st19" d="M558.7,904.29h78.78c12.23-23.16,25.39-53.9,33.93-91.47c15.44-67.98,8.35-125.84,1.04-160.83
	c-31.73-1.29-63.47-2.57-95.2-3.86c-4.6,38.77-8.56,79.13-11.69,121C562.04,815.92,559.85,861.03,558.7,904.29z"/>
<path class="st20" d="M768.52,904.29h-110.2c0,0-35.36-124.09-48.91-252.3l163.09-2.62C772.51,649.37,792.09,767.26,768.52,904.29z"
	/>
<path class="st21" d="M739.47,155.91"/>
<path class="st18" d="M680.6,474.05c0,0-17.82,17.42-17.06,32.95c0,0-94.11-81.8-118.02-97.33c0,0-20.87-36.36-33.39-19.69
	c0,0-17.08,20.07,18.59,47.72c0,0,64.4,87.11,88.93,107.18c0,0,43.13,42.8,62.86,34.09c0,0,38.71-23.48,56.92-66.66L680.6,474.05z"
	/>
<path class="st18" d="M476.37,443.97c0,0,122.62,54.19,128.89,51.51l-11.34,41.39c0,0-99.35-39.9-129.49-65.81L476.37,443.97z"/>
<rect x="401.24" y="370.04" transform="matrix(0.0808 -0.9967 0.9967 0.0808 27.5073 839.6913)" class="st22" width="135.53" height="69.79"/>
<path class="st18" d="M435.39,384.8c4.82-5.1,11.37-6.8,15.71-4.47c4.96,2.66,5.61,9.71,5.57,12.74c-0.04,2.93-0.5,7.28-2.55,12.04
	c-4.01,9.29-11.42,13.93-14.25,15.51c-1.11,0.42-3.76,1.23-6.51,0.19c-4.02-1.53-6.64-6.41-6.01-11.99
	c-0.02-2.66,0.23-6.04,1.18-9.82C430.19,392.45,433.22,387.67,435.39,384.8z"/>
</svg>
