<?xml version="1.0" encoding="utf-8"?>
<!-- Generator: Adobe Illustrator 24.2.1, SVG Export Plug-In . SVG Version: 6.00 Build 0)  -->
<svg version="1.1" id="Layer_1" xmlns="http://www.w3.org/2000/svg" xmlns:xlink="http://www.w3.org/1999/xlink" x="0px" y="0px"
	 viewBox="0 0 718.04 706.79" style="enable-background:new 0 0 718.04 706.79;" xml:space="preserve">
<style type="text/css">
	.st0{fill:url(#SVGID_1_);}
	.st1{fill:#DFDFDF;}
	.st2{fill:#494949;}
	.st3{fill:none;stroke:#494949;stroke-width:16;stroke-linecap:round;stroke-linejoin:round;}
	.st4{fill:#23425F;}
	.st5{fill:#EAA58B;}
	.st6{fill:#18559E;}
	.st7{fill:#FFAB5E;}
</style>
<g id="Layer_2_1_">
	<g id="vector">
		<linearGradient id="SVGID_1_" gradientUnits="userSpaceOnUse" x1="77.9914" y1="369.0153" x2="671.3771" y2="369.0153">
			<stop  offset="0" style="stop-color:#A64942"/>
			<stop  offset="1" style="stop-color:#FF7844"/>
		</linearGradient>
		<path class="st0" d="M619.51,128.59c36.58,43.27,51.35,101.27,51.85,159.75c0.64,58.31-13,117.43-49.58,195.87
			s-96.43,176.27-176.02,195.87s-179.1-38.98-254.65-117.43c-75.76-78.45-127.75-176.7-109.42-257.05
			c18.1-80.35,106.19-142.63,181.93-186.05c75.73-43.27,138.8-67.51,199.77-65.29C524.2,56.49,582.93,85.34,619.51,128.59z"/>
		
			<rect x="260.61" y="310.92" transform="matrix(0.9823 -0.1874 0.1874 0.9823 -74.2687 57.3871)" class="st1" width="11.61" height="221.23"/>
		<path class="st2" d="M243.24,298.57c-5.48,0-41.92-4.85-43.64-4.85c-1.73,0-5.94,1.09-5.94,3.91c0,9.54,30.65,17.99,61.79,17.99
			S243.24,298.57,243.24,298.57z"/>
		<circle class="st3" cx="141.16" cy="522.18" r="118.87"/>
		<circle class="st3" cx="565.2" cy="522.18" r="118.87"/>
		
			<rect x="410.66" y="307.13" transform="matrix(0.9424 -0.3345 0.3345 0.9424 -78.0973 168.7829)" class="st2" width="80.78" height="8.07"/>
		
			<rect x="503.27" y="299.47" transform="matrix(0.8771 -0.4802 0.4802 0.8771 -135.3334 294.7929)" class="st1" width="10.44" height="224.86"/>
		<rect x="253.6" y="400.9" class="st1" width="252.45" height="7.18"/>
		
			<rect x="271.49" y="471.85" transform="matrix(0.7941 -0.6078 0.6078 0.7941 -209.7964 341.6296)" class="st1" width="255.65" height="17.2"/>
		<path class="st1" d="M148.26,510.51c18.91,0,142.86,7.92,142.86,7.92c-5.11,15.34-22.75,61.34-22.75,61.34
			c-8.95-2.55-116.28-52.39-116.28-52.39L148.26,510.51z"/>
		
			<rect x="113.94" y="453.11" transform="matrix(0.725 -0.6887 0.6887 0.725 -261.3191 264.5128)" class="st1" width="173.31" height="12.8"/>
		<circle class="st1" cx="279.71" cy="553.52" r="32.79"/>
		<path d="M274.06,463.53c-2.93,2.55-21.32,19.68-21.32,19.68l43.87,49.52l8.11-7.36l-17.23-48.07L274.06,463.53z"/>
		<path class="st4" d="M337.29,262.82c10,3.39,79.64,62.51,87.15,73.57c-5.86,26.81-126.31,138.67-138.45,143.4
			c-6.5-3.85-13.31-12.13-13.31-16.87c3.54-5.66,58.29-91.62,58.29-91.62S294.17,258.04,337.29,262.82z"/>
		
			<ellipse transform="matrix(0.9886 -0.1504 0.1504 0.9886 -42.3939 68.5475)" class="st5" cx="431.98" cy="314.55" rx="12.83" ry="15.15"/>
		
			<ellipse transform="matrix(0.9886 -0.1504 0.1504 0.9886 -40.7437 73.4202)" class="st5" cx="465.02" cy="306.08" rx="11.88" ry="13.66"/>
		<path class="st6" d="M257.07,209.68c-7.08,4.39-31.49,31.55-31.49,61.27c0,38.27,76.89,98.12,104.72,116.89
			c-5.37,13.9-58.59,128.13-60.33,133.51c4.15,3.42,16.6,8.06,21.24,8.06c25.62-20.5,96.89-129.14,98.12-139.62
			s-59.31-124.73-59.31-124.73L257.07,209.68z"/>
		<path class="st5" d="M402.72,171.03c0.94,6.36,4.59,32.99,6.35,36.11c1.76,3.12,51.79,81.68,54.49,85.6
			c-0.41,3.38-6.22,8.93-10.27,8.25c-5.14-3.65-53.01-64.95-53.01-64.95S351.2,171.98,402.72,171.03z"/>
		<path class="st7" d="M387.48,133.99c10.37-3.11,19.97,26.77,18.21,38c-5.66,6.76-20.96,8.25-24.74,6.49
			C379.98,172.66,376.79,137.19,387.48,133.99z"/>
		<path class="st7" d="M356.75,96.91c15.17,0,36.76,17.43,36.76,34.94c0,39.32-45.46,138.72-59.27,141.96
			c-19.36,4.55-80.66-52.57-80.66-62.98C253.6,189.28,326.18,96.91,356.75,96.91z"/>
		<path class="st5" d="M373.77,72.47c-0.6,2.55-11.61,22.19-16.39,27.48c0.51,2.56,10.84,11.61,16.39,11.31
			c1.96-2.94,9.56-16.3,12.39-18.39S382.47,73.15,373.77,72.47z"/>
		<ellipse transform="matrix(0.5 -0.866 0.866 0.5 142.2665 378.5008)" class="st5" cx="398.92" cy="66.04" rx="34.29" ry="24.51"/>
		<path class="st4" d="M374.67,55.72c-0.19-3.6,6.07-21.99,16.21-27.34s16.49-1.67,23.56-1.67c6.35,0,11.4-3.09,18.4-2.66
			c9.1,0.57,10.24,9.58,11.66,13.85c1.89,5.66,11.12,6.22,15.36,16.97c2.27,5.78-8.81,17.06-18.39,17.06
			c-5.6,0-14.14-3.21-16.64-4.71c0.53-2.2,0.94-4.42,1.24-6.66c-3.38,0-24.33-4.19-26.04-4.1c-1.71,0.09-7.97,6.45-8.54,7.78
			C389.55,63.68,378.46,63.02,374.67,55.72z"/>
		<circle class="st5" cx="375.83" cy="62.14" r="8"/>
		<path class="st7" d="M340.68,107.92c19.34-7.82,45.99,41.71,46.79,59.62c-3.33,5.39-38.41,18.35-45.53,17.32
			C331.63,172.94,319.13,116.64,340.68,107.92z"/>
		<path class="st5" d="M343.74,182.13c2.56,6.9,13.25,38.65,16.5,47.06c3.24,8.41,51.53,71.64,58.96,77.76
			c8.79,2.44,12.3-1.35,13.11-6.21c-1.75-4.87-37.46-82.63-40.16-90.07s-9.61-39.08-9.74-43.28
			C376.35,163.46,347.13,170.77,343.74,182.13z"/>
		<path d="M271.9,519.63c-1.7,3.5-11.87,26.48-11.87,26.48l59.86,28.28l4.55-9.95l-34.75-37.39L271.9,519.63z"/>
		<ellipse transform="matrix(0.0333 -0.9994 0.9994 0.0333 -385.4198 645.8855)" cx="141.16" cy="522.18" rx="16.3" ry="16.3"/>
		<circle cx="565.2" cy="522.18" r="16.3"/>
	</g>
</g>
</svg>
