<?xml version="1.0" encoding="utf-8"?>
<!-- Generator: Adobe Illustrator 24.2.1, SVG Export Plug-In . SVG Version: 6.00 Build 0)  -->
<svg version="1.1" xmlns="http://www.w3.org/2000/svg" xmlns:xlink="http://www.w3.org/1999/xlink" x="0px" y="0px"
	 viewBox="0 0 1122 1122" style="enable-background:new 0 0 1122 1122;" xml:space="preserve">
<style type="text/css">
	.st0{fill:url(#SVGID_1_);}
	.st1{fill:#EBCEB1;}
	.st2{fill:#D1D9DB;}
	.st3{fill:#333333;}
	.st4{fill:#1A1A1A;}
	.st5{fill:#3C6794;}
	.st6{fill:#514943;}
	.st7{fill:#EACDB0;}
	.st8{fill:#494949;}
	.st9{opacity:0.11;}
	.st10{opacity:0.14;}
	.st11{fill:#435B6E;}
	.st12{fill:#2E414C;}
	.st13{fill:#22323A;}
	.st14{opacity:0.15;fill:#FFFFFF;}
	.st15{fill:#5C7789;}
	.st16{opacity:0.08;fill:#FFFFFF;}
	.st17{fill:#AFBDC6;}
	.st18{fill:#C1D0DB;}
	.st19{fill:#FFAB5E;}
	.st20{fill:#FFFFFF;}
	.st21{fill:#534741;}
</style>
<g id="background">
</g>
<g id="shadow">
	<linearGradient id="SVGID_1_" gradientUnits="userSpaceOnUse" x1="4.078" y1="952.1268" x2="1116.3589" y2="952.1268">
		<stop  offset="0" style="stop-color:#EB7041"/>
		<stop  offset="1" style="stop-color:#AB4C42"/>
	</linearGradient>
	<path class="st0" d="M614.9,917.16c18.95-2.01,37.88-4.2,56.81-6.38c62.58-7.22,125.17-11.74,187.86-16.15
		c44.52-3.13,89.32-4.79,133.8-0.19c38.25,3.95,84.43,11.9,113.97,41.54c16.57,16.63,9.52,37.63-14.84,51.79
		c-25.74,14.96-58.42,15.4-86.87,17.49c-267.56,19.66-533.68-6.14-801.32-5.07c-37.87,0.15-76.34,2.64-114.18,4.31
		c-22.99,1.02-52.86,5.35-75.45-0.91c-14.27-3.95-13.2-17.74-2.34-24.88c19.82-13.04,49.7-14.52,72.25-15.99
		c59-3.86,117.98-8.13,176.94-12.79C379.44,940.6,497.24,929.67,614.9,917.16z"/>
</g>
<g id="object">
	<g>
		<g>
			<polygon class="st1" points="805.64,312.88 808.6,289.57 818.55,290.56 820.04,307.02 824.93,305.29 819.98,324.89 
				809.52,325.27 			"/>
		</g>
		<g>
			<path class="st2" d="M866.49,458.22c15.01,1.34,32.22,0.64,42.17-10.68c8.1-9.2,8.78-22.92,6.11-34.88
				c-0.31-1.38-0.74-2.88-1.91-3.68c-1.08-0.73-2.5-0.66-3.8-0.56c-13.36,1.03-26.73,2.06-40.09,3.09
				c-7.49,0.58-22.5,4.75-26.58-1.1c-4.6-6.59-4.63-22.91-6.21-30.72c-4.1-20.28-8.2-40.57-12.3-60.85l-20.71,1.83
				c0.2,18.68,0.4,37.35,0.6,56.03c0.14,13.35,0.29,26.71,0.43,40.06C804.58,452.3,837.4,455.62,866.49,458.22z"/>
		</g>
	</g>
	<path class="st2" d="M953.89,418.01c12.25,9.32,17.47,26.03,20.51,41.5c12.49,63.68,6.12,129.38-0.46,193.94
		c-0.74,7.22-2.47,10.35-9.44,7.24c-43.7-19.48-86.7-44.63-134.45-47.69c11.97-40.53,13.24-83.38,21.35-124.86
		c2.35-12.03,5.32-24.04,10.47-35.17c6.71-14.51,17.45-30.19,29.33-41.01c11.19-10.18,28.97-5.67,42.39-2.27
		c5.57,1.41,11.2,2.85,16.22,5.64C951.25,416.14,952.6,417.04,953.89,418.01z"/>
	<g id="XMLID_10_">
		<g id="XMLID_12_">
			<g>
				<polygon class="st1" points="371.83,447.13 383.99,450.56 393.72,445.05 395.94,446.49 394.24,449.26 403.62,446.96 
					410.66,450.3 412.36,460.42 407.22,469.79 396.83,470.48 385.77,465.1 368.91,461.12 				"/>
			</g>
		</g>
		<g id="XMLID_11_">
			<g>
				<path class="st2" d="M377.33,440.77c0,0-121.87-29.87-121.87-29.87c-4.2-1.03-9.24-5.67-12.88-7.9
					c-8.66-5.31-17.32-10.63-25.98-15.94c-5.92-3.63-16.31-12.95-23.5-12.94c-11.71,0.01-17.9,17.47-17.98,26.85
					c-0.26,28.77,26.62,41.11,46.66,56.53l19.33,10l135.31,2.7L377.33,440.77z"/>
			</g>
		</g>
	</g>
	<g>
		<g>
			<g>
				<g>
					<path class="st1" d="M229.86,292.68c-15.53,5.18-32.11-6.16-47.1,1.34c-9.74,4.87-16.37,17.14-17.97,29.52
						c-0.74,5.77-0.5,11.81,1.58,16.86c1.35,3.28,3.42,6.02,5.75,8.34c3.11,3.1,6.73,5.42,10.61,6.94
						c-1.5,4.15-3.31,8.16-5.41,11.97c7.65,1.44,15.3,2.88,22.95,4.32c0.99-5.21,1.98-10.42,2.97-15.63
						c2.16-0.67,4.29-1.56,6.33-2.72c12.37-7.01,21.38-22.66,22.3-38.74C232.3,307.33,231.1,299.95,229.86,292.68z"/>
				</g>
			</g>
		</g>
		<path class="st3" d="M151.22,325.87c-0.66-1.12-1.29-2.25-1.86-3.43c-6.89-14.21-10.58-30.9-0.39-44.6
			c10.37-13.95,31.62-20.05,47.86-15.92c8.95,2.28,18.41,5.34,27.18,2.46c2.62-0.86,5.17-2.33,6.66-4.65
			c1.38-2.16,1.74-4.85,3.16-6.98c3.33-4.98,12.43-3.8,14.39,1.86c0.57,1.66,0.61,3.51,1.48,5.04c1.92,3.39,6.6,3.53,10.46,4.04
			c1.24,0.16,2.57,0.47,3.36,1.43c1.44,1.77,0.07,4.55-1.91,5.68c-2.73,1.56-7.48,1.12-9.21,4.18c-1.25,2.21,0.66,6.45,0.34,9
			c-1.12,8.94-8.83,17.06-16.98,20.1c-7.81,2.92-14.8-0.25-22.59-2.25c-2.21-0.56-4.56-1.95-6.72-2.25
			c-2.73-0.38-5.41,0.96-8.02,1.54c-3.25,0.72-6.63,0.32-9.95,0.04c-3.32-0.27-6.78-0.39-9.86,0.87c-3.09,1.26-5.7,4.24-5.51,7.57
			c0.23,4.03,4.28,7.16,4.21,11.2c-0.07,3.5-3.18,6.11-4.51,9.34c-1.03,2.5-1.06,5.54-2.94,7.49c-0.83,0.87-1.96,1.43-2.72,2.36
			c-0.99,1.22-1.29,3.01-2.62,3.87c-1.46,0.95-3.52,0.2-4.64-1.13c-1.13-1.33-1.59-3.07-2.14-4.72
			C156.23,333.6,153.55,329.84,151.22,325.87z"/>
	</g>
	<g>
		<path class="st2" d="M180.55,365.94c-3.46-0.35-7.18-0.66-10.21,1.01c-2.73,1.5-4.36,4.31-5.84,6.99
			c-38.79,70.78-55.6,152.81-47.67,232.67c46.21-8.32,93.31-12,140.29-10.96c-4.28-31.04-8.56-62.08-12.85-93.12
			c-3.16-22.9-6.32-45.83-11.57-68.36c-4.6-19.74-10.8-39.14-18.51-57.94C209.32,364.34,191.56,367.06,180.55,365.94z"/>
		<g>
			<g>
				<g>
					<path class="st4" d="M281.07,958.66l9.02,8.43c5.81,5.43,4.48,15.27-2.81,18.46c-4.3,1.88-10.35,1.59-18.72-4.14l-19.22-21.85
						l3.12-7.07l27.75-4.19L281.07,958.66z"/>
				</g>
			</g>
			<g>
				<g>
					<path class="st5" d="M262.2,588.26l44.68,182.57l-13.16,178.62l-44.09,3.81l-10.17-161.11c0,0-96.72-176.53-91.19-180.35
						C153.8,607.97,262.2,588.26,262.2,588.26z"/>
				</g>
			</g>
		</g>
		<g>
			<g>
				<g>
					<path class="st4" d="M144.32,958.66l9.04,8.41c5.82,5.42,4.51,15.26-2.77,18.46c-4.29,1.88-10.34,1.61-18.72-4.1l-19.26-21.82
						v-10.16l7.28-6.42l21.21,3.93L144.32,958.66z"/>
				</g>
			</g>
			<g>
				<g>
					<path class="st5" d="M231.67,599.81L217.8,787.26l-65.04,165.01l-45.74-9.16l40.06-156.38c0,0-37.5-197.77-31.06-199.69
						C122.47,585.1,231.67,599.81,231.67,599.81z"/>
				</g>
			</g>
		</g>
		<g>
			<polygon class="st5" points="112.61,592.57 129.93,550.66 190.25,530.66 178.74,454.25 238.93,444.52 249.35,552.02 
				264.1,596.02 118.66,622.59 			"/>
			<path class="st5" d="M182,420.92c0.1-11.81-0.51-25.26-9.53-32.89c-2.03-1.72-4.53-3.06-7.19-3.05
				c-5.43,0.03-9.12,5.34-11.82,10.04c-0.89-7.02-1.41-14.78,2.71-20.53c5.24-7.33,16.61-8.22,24.3-3.54
				c7.69,4.69,12.01,13.53,13.65,22.39c1.63,8.86,0.98,17.95,0.97,26.95c-0.01,13.13,1.36,26.22,2.74,39.28
				c-5.26-0.35-10.39,0.72-15.51,0.95C179.18,448.98,181.9,433.08,182,420.92z"/>
			<path class="st5" d="M222.67,408.69c-1.31-11.38-4.06-23.94-13.51-30.41c-2.34-1.6-5.37-3.37-5.23-6.2
				c0.08-1.66,1.34-3.05,2.78-3.89c4.8-2.79,11.28-0.4,14.79,3.9c3.52,4.29,4.78,9.96,5.83,15.41c4.18,21.69,6.7,43.71,7.54,65.78
				c0.13,3.32-7.96,1.47-9.32-0.03c-2.22-2.45-0.98-8.2-1-11.15C224.51,430.93,223.95,419.79,222.67,408.69z"/>
		</g>
	</g>
	<g>
		<g>
			<g>
				<polygon class="st6" points="925.69,918.54 923.86,930.76 928.01,953.98 941.65,952.68 944.22,918.29 942.21,912.78 				"/>
			</g>
		</g>
		<g>
			<g>
				<polygon class="st6" points="861.54,952.13 840.17,967.79 842.84,979.5 881.96,970.17 878.78,953.26 				"/>
			</g>
		</g>
		<g>
			<polygon class="st5" points="819.43,644.23 820.13,804.91 855.95,955.72 885.11,955.72 883.28,780.79 900.83,648.58 
				887.98,622.42 823.19,629.77 			"/>
		</g>
		<g>
			<polygon class="st5" points="893.33,762.48 923.86,915.88 950.42,912.78 957.69,792.98 971.34,661.96 957.58,623.63 
				883.44,623.63 			"/>
		</g>
		<g>
			<g>
				<path class="st7" d="M963.98,363.37c-2.76-26.2-36.08-42.28-50.31-15.57c-4.27,8.03-7.68,16.78-7.88,25.89
					c-0.19,9.11,3.28,18.63,10.53,23.94c0.04,0.03,0.08,0.05,0.13,0.08c-0.8,2.2-1.59,4.41-2.39,6.61c-0.17,0.47-0.34,1-0.16,1.47
					c0.21,0.53,0.79,0.78,1.32,0.98c2.58,0.98,5.16,1.95,7.73,2.93c1.28,0.48,2.61,0.98,3.97,0.84c2.98-0.31,4.86-3.45,5.61-6.4
					c0.18-0.7,0.33-1.42,0.47-2.14C949.94,399.89,965.78,380.5,963.98,363.37z"/>
			</g>
		</g>
	</g>
	<g>
		<g>
			<g>
				<path class="st8" d="M485.77,388.24l-15.96,8c0.76,6.04,1.8,12.07,3.14,18.09c1.34,6.01,2.96,11.92,4.85,17.71l17.85,0.46
					c20.3,0.52,32.12,23.15,20.95,40.11l-9.86,14.98c7.35,9.73,15.66,18.75,24.84,26.95l15.7-8.54c17.84-9.7,39.39,3.99,38.2,24.26
					l-1.05,17.84c11.33,4.82,23.02,8.51,34.95,11.03l9.36-15.29c10.6-17.32,36.11-16.24,45.21,1.91l8,15.96
					c6.04-0.76,12.07-1.8,18.09-3.14c6.01-1.34,11.92-2.96,17.71-4.85l0.46-17.85c0.52-20.3,23.15-32.12,40.11-20.95l14.98,9.86
					c9.72-7.35,18.75-15.66,26.95-24.84l-8.54-15.7c-9.7-17.84,3.99-39.39,24.26-38.2l17.84,1.05c4.82-11.33,8.51-23.02,11.03-34.95
					l-15.3-9.36c-17.32-10.6-16.24-36.11,1.91-45.21l15.96-8c-0.76-6.04-1.8-12.07-3.14-18.09c-1.34-6.01-2.96-11.92-4.85-17.71
					l-17.85-0.46c-20.3-0.52-32.12-23.15-20.95-40.11l9.86-14.98c-7.35-9.73-15.66-18.75-24.84-26.95l-15.7,8.54
					c-17.84,9.7-39.39-3.99-38.2-24.26l1.05-17.84c-11.33-4.82-23.02-8.51-34.95-11.03l-9.36,15.29
					c-10.6,17.32-36.11,16.24-45.21-1.91l-8-15.96c-6.04,0.76-12.07,1.8-18.09,3.14c-6.01,1.34-11.92,2.96-17.71,4.85l-0.46,17.85
					c-0.52,20.3-23.15,32.12-40.11,20.95l-14.98-9.86c-9.73,7.35-18.75,15.66-26.95,24.84l8.54,15.7
					c9.7,17.84-3.99,39.39-24.26,38.2l-17.84-1.05c-4.82,11.33-8.51,23.02-11.03,34.95l15.3,9.36
					C505,353.63,503.92,379.14,485.77,388.24z M643.47,352.97c-0.62,0.47-1.22,0.97-1.8,1.5c-0.83,0.76-1.58,1.57-2.29,2.41
					l-75.48-11.36c7.57-26.08,25.75-48.4,50.65-60.81c6.26-3.12,13.78,0.48,15.31,7.3L643.47,352.97z M722.75,316.11l-52.17,34.82
					c-2.14-1.17-4.41-2-6.75-2.5l-13.61-60.96c-1.52-6.83,3.77-13.28,10.77-13.12c23.58,0.55,45.81,9.6,62.96,24.77
					C729.23,303.79,728.61,312.2,722.75,316.11z M659.74,357.89c8.29,0.62,14.5,7.85,13.88,16.13c-0.62,8.29-7.85,14.5-16.13,13.88
					c-8.29-0.62-14.5-7.85-13.88-16.13C644.22,363.49,651.45,357.27,659.74,357.89z M683.49,375.55c0.28-2.63,0.14-5.29-0.41-7.89
					l51.76-34.55c5.73-3.83,13.6-1.38,16.02,5.07c1.6,4.26,2.92,8.68,3.94,13.25c4.67,20.92,2.31,41.78-5.51,60.1
					c-2.83,6.63-11.18,8.75-16.76,4.18L683.49,375.55z M628.46,453.5l27.57-55.71c5.72,0.59,11.62-0.78,16.6-4.16l47.95,39.27
					c5.28,4.32,5.26,12.41-0.05,16.71c-11.44,9.25-25.13,16.07-40.46,19.49c-15.19,3.39-30.35,3.07-44.53-0.35
					C628.85,467.13,625.4,459.68,628.46,453.5z M572.6,367.92l61.35,9.23c0.6,3.51,1.96,6.92,4.08,9.98l-27.89,56.35
					c-3.12,6.3-11.4,8.03-16.68,3.38c-15.13-13.3-26.33-31.33-31.05-52.5c-1.13-5.06-1.85-10.12-2.17-15.13
					C559.8,372.39,565.82,366.9,572.6,367.92z"/>
			</g>
		</g>
		<g class="st9">
			<g>
				<path d="M533.1,363.47c5.2-69.2,65.73-121.27,134.93-116.08c69.2,5.2,121.27,65.73,116.08,134.93
					c-5.2,69.2-65.73,121.27-134.93,116.08C579.98,493.21,527.91,432.68,533.1,363.47z M557.87,365.33
					c-4.17,55.54,37.62,104.13,93.17,108.3c55.54,4.17,104.13-37.62,108.3-93.17c4.17-55.54-37.62-104.13-93.17-108.3
					C610.63,268,562.05,309.79,557.87,365.33z"/>
			</g>
		</g>
	</g>
	<g>
		<path class="st10" d="M619.64,968.4c2.25-1.07,4.29-2.38,4.65-3.76c0.39-1.51-0.85-3.02-2.37-3.86
			c-4.34-2.4-14.31-1.23-19.34-1.27c-9.05-0.08-18.11,0.01-27.15,0.29c-4.15,0.13-49.47,1.3-45.21,9.07
			c3.74,6.81,27.94,8.33,34.64,8.2c11.01-0.22,22.08-0.54,32.91-2.33c5.56-0.92,11.04-2.23,16.26-4.1
			C615.31,970.18,617.56,969.39,619.64,968.4z"/>
		<g>
			<circle class="st11" cx="549.66" cy="939.39" r="36.56"/>
			<polygon class="st12" points="535.57,961.16 523.76,938.08 537.84,916.31 563.74,917.62 575.55,940.71 561.47,962.48 			"/>
			<circle class="st13" cx="549.66" cy="939.39" r="13.39"/>
		</g>
	</g>
	<g>
		<g>
			<path class="st12" d="M605.86,824.71l38.6-73.61l32.11,19.65l-47.64,68.08l-12.7-1.99c-1.27-0.2-2.41-0.91-3.16-1.96
				L605.86,824.71z"/>
			<path class="st11" d="M611.28,813.58c10.59,3.83,21.47,7.54,32.68,11.14c4.79,1.54,7.75-5.87,2.78-7.43
				c-11.61-3.63-22.88-7.38-33.83-11.25C608.37,804.44,606.9,812,611.28,813.58z"/>
			<path class="st11" d="M604.97,825.75c9.88,3.71,20,7.31,30.42,10.82c4.44,1.5,6.93-5.06,2.33-6.57
				c-10.76-3.54-21.22-7.19-31.42-10.95C602.09,817.5,600.89,824.22,604.97,825.75z"/>
			<path class="st11" d="M625.3,786.31c12.23,3.74,24.89,7.3,38.03,10.7c5.64,1.46,10.48-8.94,4.57-10.39
				c-13.76-3.37-27-6.93-39.77-10.69C622.87,774.38,620.27,784.77,625.3,786.31z"/>
			<path class="st11" d="M618.45,799.71c11.41,3.95,23.16,7.76,35.29,11.44c5.19,1.57,8.75-6.89,3.35-8.47
				c-12.61-3.7-24.8-7.54-36.64-11.53C615.56,789.5,613.74,798.08,618.45,799.71z"/>
		</g>
		<polygon class="st14" points="626.91,838.51 662.51,776.01 668.14,781.7 628.65,838.56 		"/>
		<g>
			<path class="st15" d="M703.41,761.75c0.49-12.59-9.29-26.18-21.71-33.78c-12.42-7.6-28.98-10.12-39.96-3.96
				c-16.66,9.34-16.17,34.83,10.92,51.41C679.75,792,702.67,780.84,703.41,761.75z"/>
			<g>
				<path class="st11" d="M657.53,767.46c-27.09-16.58-29.11-39.57-13.64-46.96c10.2-4.88,26.3-1.6,38.71,6
					c12.42,7.6,22.66,20.44,22.95,31.75C706.01,775.38,684.62,784.04,657.53,767.46z"/>
				<polygon class="st12" points="662.31,723.59 681.66,730 695.22,744.91 691.29,760.42 662.83,755.42 648.64,732.31 				"/>
				<path class="st13" d="M670.14,746.85c-7.22-4.42-9.99-11.1-6.71-14.4c2.82-2.84,9.29-2.14,14.78,1.22
					c5.49,3.36,9.05,8.8,7.81,12.6C684.57,750.7,677.36,751.27,670.14,746.85z"/>
			</g>
		</g>
	</g>
	<g>
		<g>
			<path class="st12" d="M747.92,550.39l-45.44-77.81l28.55-16.37l45.44,77.81l-6.93,13.83c-1.16,2.31-3.58,3.7-6.16,3.54
				L747.92,550.39z"/>
			<path class="st11" d="M718.25,501.77c9.41-8.88,18.64-17.97,27.7-27.27c3.8-3.9-2.86-11.06-6.67-7.15
				c-9.06,9.29-18.29,18.38-27.7,27.27C707.64,498.35,714.31,505.49,718.25,501.77z"/>
			<path class="st11" d="M728.04,518.83c9.41-8.88,18.64-17.97,27.7-27.27c3.8-3.9-2.86-11.06-6.67-7.15
				c-9.06,9.29-18.29,18.38-27.7,27.27C717.42,515.41,724.09,522.55,728.04,518.83z"/>
			<path class="st11" d="M737.82,535.89c9.41-8.88,18.64-17.97,27.7-27.27c3.8-3.9-2.86-11.06-6.67-7.15
				c-9.06,9.29-18.29,18.38-27.7,27.27C727.2,532.46,733.88,539.61,737.82,535.89z"/>
			<path class="st11" d="M747.61,552.94c9.41-8.88,18.64-17.97,27.7-27.27c3.8-3.9-2.86-11.06-6.67-7.15
				c-9.06,9.29-18.29,18.38-27.7,27.27C736.99,549.52,743.66,556.67,747.61,552.94z"/>
		</g>
		<polygon class="st16" points="771.11,544.81 768.89,549.4 721.6,473.33 733.37,464.77 		"/>
		<g>
			<path class="st15" d="M738.47,423.67c-11.13-5.09-28.43-1.33-41.65,7.02c-13.22,8.35-23.97,22.31-24.02,34.46
				c-0.07,18.42,23.22,27.41,52.07,9.19C753.73,456.11,755.35,431.38,738.47,423.67z"/>
			<g>
				<path class="st11" d="M720.17,467.01c-28.85,18.22-50.66,11.54-49.44-5.1c0.81-10.97,12-24.23,25.22-32.58
					c13.22-8.35,30.07-12.81,40.44-8.9C752.12,426.36,749.02,448.79,720.17,467.01z"/>
				<polygon class="st12" points="684.47,449.04 700.17,434.02 720.58,427.34 732.59,436.6 713.52,460.34 685.36,464.56 				"/>
				<path class="st13" d="M709.51,450.6c-7.69,4.86-15.14,4.88-16.45,0.71c-1.12-3.59,2.81-9.14,8.66-12.83
					c5.85-3.69,12.59-4.89,15.39-2.36C720.37,439.05,717.2,445.74,709.51,450.6z"/>
			</g>
		</g>
	</g>
	<g>
		<g>
			<path class="st12" d="M554.74,378.81l15.5,45.79c1.47,4.35,6.19,6.68,10.54,5.21l7.71-2.61c4.35-1.47,6.68-6.19,5.21-10.54
				l-15.5-45.79c-1.47-4.35-6.19-6.68-10.54-5.21l-7.71,2.61C555.6,369.74,553.27,374.46,554.74,378.81z"/>
			<path class="st11" d="M563.44,409.2c10.47-0.19,20.94-0.27,31.42-0.24c2.97,0.01,3.26,4.63,0.27,4.63
				c-10.47-0.02-20.94,0.06-31.42,0.24C560.73,413.88,560.45,409.25,563.44,409.2z"/>
			<path class="st11" d="M558.77,395.4c10.47-0.19,20.94-0.27,31.42-0.24c2.97,0.01,3.26,4.63,0.27,4.63
				c-10.47-0.02-20.94,0.06-31.42,0.24C556.07,400.08,555.78,395.46,558.77,395.4z"/>
			<path class="st11" d="M556.06,382.87c10.47-0.19,20.94-0.27,31.42-0.24c2.97,0.01,3.26,4.63,0.27,4.63
				c-10.47-0.02-20.94,0.06-31.42,0.24C553.35,387.55,553.06,382.92,556.06,382.87z"/>
		</g>
		<path class="st17" d="M558.64,371.03c5.85-0.82,11.71-1.57,17.59-2.22c4.33-0.48,10.86-2.44,15.15-0.14
			c4.09,2.2,6.19,8.42,8.07,12.39c2.61,5.5,4.87,11.16,6.74,16.92c1.69,5.18,3.04,10.44,4.14,15.74c0.86,4.15,1.54,8.29-1.92,11.13
			c-7.51,6.17-20.87,5.34-30.17,5.21c-5.54-0.08-6.39-8.93-0.81-8.86c7.74,0.1,15.38,0.11,22.69-2.24c2.75-0.88,2.4-0.97,1.81-3.96
			c-0.45-2.25-0.99-4.49-1.57-6.71c-1.02-3.9-2.22-7.77-3.58-11.57c-1.37-3.81-2.89-7.57-4.58-11.26c-0.91-1.99-1.87-4.36-3.04-6.2
			c-1.64-2.56-1.68-2.27-4.26-2.41c-3.8-0.21-8.03,0.82-11.76,1.25c-4.57,0.54-9.12,1.14-13.67,1.78
			C554.01,380.65,553.22,371.79,558.64,371.03z"/>
		<path class="st12" d="M538.2,376.5c4.14-1.17,8.35-1.73,12.48-2.94c0.64-0.22,1.28-0.42,1.91-0.61c5.47-1.66,8.8,6.55,3.3,8.5
			c-1.42,0.5-2.85,0.97-4.29,1.4c-3.36,1.3-6.29,3.28-6.11,7.41c0.24,5.42,2.43,11.25,4.42,16.26c2.12,5.31,4.81,10.35,8.09,15.05
			c1.94,2.78,1.73,3.38,4.99,2.98c2.9-0.36,5.8-0.76,8.7-1.14c2.95-0.39,4.65,1.81,4.83,4.14c1.02,1.79,0.96,4.09-1.22,5.55
			c-6.46,4.33-15.25,8.6-22.48,2.82c-3.71-2.97-5.16-8.27-6.97-12.45c-2.17-5.02-4.33-10.03-6.5-15.05
			c-3.06-7.08-10.03-17.34-7.96-25.39C532.29,379.51,534.85,377.45,538.2,376.5z"/>
		<path class="st17" d="M621.17,403.87c12.05-1.26,23.77-3.44,35.63-5.88c7.94-1.63,15.75-3.02,23.46-5.5
			c7.6-2.44,15.12-5.1,22.8-7.29c5.74-1.64,23.69-8.52,27.37-1.07c2.23,4.51-2.35,9.99-5.02,13.19c-3.96,4.74-8.12,9.56-12.37,14
			c-12.73,13.29-27.17,24.93-42.87,34.53c-12.42,7.59-25.81,13.96-40,17c-1.64,0.35-3.28,0.65-4.94,0.91
			c-0.69,0.11-1.43,0.2-2.07-0.09c-0.94-0.43-1.35-1.52-1.66-2.5c-5.05-15.93-9.13-32.17-12.2-48.59c-0.39-2.1-0.74-4.38,0.27-6.26
			C611.2,403.26,618.23,404.17,621.17,403.87z"/>
		<g>
			<path class="st11" d="M540.1,377.66c-2.39,0.3-3.79,2.73-2.96,5.13l15.23,44.01c0.68,1.96,2.64,3.22,4.58,2.93l19.35-2.81
				l14.29,41.83l0,0c-0.46-0.62-6.4-0.67-8.46-1.49c-3.67-1.47-6.87-1.94-10.83-2.33c-25.22-2.52-52-3.29-73.5,12.33
				c-34.57,25.13-68.55,51.18-102.53,77.1c-34.47,26.3-68.67,52.96-102.25,80.39c-0.67,0.55-1.34,1.1-2.01,1.65
				c-16.61,13.59-33.07,27.35-49.57,41.07c-8.58,7.13-17.17,14.25-25.8,21.32c-9.28,7.6-15.02,15.55-28.12,11.46
				c-11.69-3.65-23.36-11.94-31.03-21.37c-6.3-7.75-10.47-16.81-12.54-26.56c-2.24-10.53-6.3-23.62,4.52-30.51
				c4.75-3.02,9.44-6.02,13.97-9.37c69.83-47.45,140.89-94.7,209.7-144.16c4.88-3.51,9.76-7.01,14.65-10.5
				c18.07-12.91,48.09-36.05,65.74-49.55c34.39-26.31,38.38-45.73,58.18-77.68c7.99-12.9,15.46-26.11,22.58-39.51l25.38,74.29
				L540.1,377.66z"/>
			<path class="st18" d="M593.67,265.37c26.01-4.91,90,26.97,106.84,34c16.84,7.03,5.88,20.29,5.88,20.29
				c-3.02,0.45-6.03,0.94-9.04,1.44c-8.14,1.34-16.27,2.79-24.37,4.35c-5.92,1.14-11.84,2.34-17.74,3.56
				c-2.95,0.61-5.91,1.21-8.86,1.85c-2.36,0.52-4.52,1.73-6.85,2.45c-2.6,0.8-5.2,1.61-7.72,2.63c-4.8,1.95-10.02,4.69-13.91,8.17
				c-1.37,1.22-3.49,4.4-2.74,6.48c0.09,0.25,40.99,114.02,40.99,114.02c0.49,1.35-0.5,2.78-1.93,2.81l-63.63,1.35
				c0.01,0,2.94-2.27,2.22-10.28c-0.49-5.49-1.59-10.91-2.87-16.26c-1.33-5.59-2.95-11.1-4.61-16.6l16.1-2.34
				c4.95-0.72,7.73-5.89,5.84-10.83l-14.57-37.97c-0.71-1.86-2.58-3.04-4.45-2.81l-18.77,2.33c-9.25-27.58-19.87-54.7-31.81-81.23
				c-1.43,2.77-2.89,5.53-4.35,8.28l-1.14-3.34C542.28,285.09,567.65,270.28,593.67,265.37z"/>
			<path class="st18" d="M585.33,425.62c1.66,5.5,3.28,11.01,4.61,16.6c1.27,5.35,2.37,10.78,2.87,16.26
				c0.72,8.02-2.21,10.28-2.22,10.28l-14.29-41.83L585.33,425.62z"/>
			<path class="st18" d="M569.47,374.01l-10.79,1.34l-25.38-74.29c1.46-2.75,2.92-5.51,4.35-8.28
				C549.6,319.31,560.22,346.43,569.47,374.01z"/>
		</g>
		<g>
			<path class="st19" d="M401.11,554.06c-0.62,0.47-1.24,0.95-1.87,1.42c-36.72,28.01-73.14,56.42-108.92,85.63
				c-0.72,0.58-1.43,1.17-2.15,1.75c-17.69,14.47-35.22,29.14-52.8,43.75c-9.14,7.6-18.29,15.18-27.48,22.71
				c-9.88,8.1-16,16.56-29.95,12.21c-12.45-3.88-24.88-12.71-33.05-22.76c-6.71-8.25-11.15-17.91-13.36-28.29
				c-2.38-11.21-6.71-25.16,4.82-32.5c5.06-3.22,10.05-6.42,14.88-9.98c66.29-45.04,136.48-92.08,202.23-138.6L401.11,554.06z"/>
			
				<ellipse transform="matrix(0.6642 -0.7475 0.7475 0.6642 -439.8572 359.2236)" class="st20" cx="179.96" cy="669.26" rx="18.57" ry="18.57"/>
		</g>
		<path class="st16" d="M396.35,524.86l-14.51-19.69c-2.72-3.69-1.94-8.88,1.75-11.6c23.59-17.38,101.87-75.32,106.69-82.72
			c4.26-6.54,8.78-12.91,13.26-19.29c2.56-3.65,10.97-20.34,14.97-21.48c9-2.55,13.25,22.46,15.26,28.3
			c3.99,11.6,7.82,23.25,11.59,34.92c1.18,3.64-1.42,7.4-5.24,7.6c-8.45,0.44-22.21,2.23-32.43,8.83
			c-13.18,8.51-78.27,59.89-99.53,76.72C404.49,529.36,399.13,528.64,396.35,524.86z"/>
		<g>
			<path class="st11" d="M168.71,653.75c8.77-6.46,21.16-4.58,27.62,4.19c6.46,8.77,4.58,21.16-4.19,27.62
				c-8.77,6.46-21.16,4.58-27.62-4.19C158.06,672.6,159.94,660.21,168.71,653.75z M169.94,655.43c-7.84,5.78-9.52,16.86-3.74,24.7
				c5.78,7.84,16.86,9.52,24.7,3.74c7.84-5.78,9.52-16.86,3.74-24.7C188.87,651.33,177.79,649.65,169.94,655.43z"/>
		</g>
	</g>
	<g id="XMLID_7_">
		<g id="XMLID_9_">
			<g>
				<polygon class="st1" points="297.53,563.05 307.8,571.34 319.41,570.05 320.95,572.33 318.18,574.29 328.14,575.94 
					333.52,582.03 331.01,592.45 322.22,599.34 311.96,595.74 303.54,586.04 288.99,575.29 				"/>
			</g>
		</g>
		<g id="XMLID_8_">
			<g>
				<path class="st2" d="M308.44,560.83c0,0-92.92-92.41-92.92-92.41c-3.21-3.19-5.21-10.05-7.26-14.01
					c-4.88-9.42-9.77-18.85-14.65-28.27c-3.34-6.44-7.62-20.38-14.05-24.25c-10.47-6.31-25.43,5.98-30.56,14.32
					c-15.74,25.6,1.66,51.12,11.26,75.72l11.9,19.37l119.59,75.35L308.44,560.83z"/>
			</g>
		</g>
	</g>
	<g>
		<path class="st5" d="M134.88,299.37c0.4,11.45,5.14,22.38,11.61,31.65c3.34-0.82,6.42-2.5,9.44-4.19
			c13.59-7.62,27-15.91,38.35-26.8c11.35-10.89,20.63-25.69,25.11-37.87c-9.67-7.45-24.76-11.13-37.23-10.38
			C159.41,253.15,134,274.25,134.88,299.37z"/>
		<path class="st5" d="M233.94,233.3c4.26-1.64,9.48-2.87,13.05-0.03c4.23,3.36,3.27,10,1.36,15.05
			c-6.44,17.01-19.4,31.47-35.62,39.72c-7.03,3.58-20.31,6.57-23.5-3.82c-1.71-5.55,2.37-16.04,4.87-21.27
			C200.92,248.65,219.96,238.7,233.94,233.3z"/>
	</g>
	<path class="st5" d="M946.72,500.46l-11.36,0.06c0.4-6.09,0.8-12.18,1.2-18.27c0.6-9.12,1.2-18.28,3.03-27.24
		c2.89-14.23,8.88-27.82,17.43-39.57c-4.31-4.86-12.47-5.65-17.62-1.7c-3.79,2.9-5.68,7.6-7.25,12.12
		c-5.81,16.71-9.61,34.11-11.34,51.71c-0.66,6.75-2.29,15.68-1.63,23.04l-38.67,0.2c0.5-7.53,0.99-15.06,1.49-22.59
		c0.6-9.12,1.2-18.28,3.03-27.24c1.81-8.92,4.84-17.58,8.95-25.7c3.87-7.64,7.83-17.17,15.17-21.57
		c-6.38-0.27-12.81,0.72-18.82,2.89c-7.04,2.54-10.4,8.46-12.75,15.23c-5.81,16.71-9.61,34.11-11.34,51.71
		c-0.79,8-2.94,19.07-1.02,26.94c0.04,0.14,0.06,0.27,0.09,0.41l-9.91,0.05l-32.2,128.84h136.6L946.72,500.46z"/>
	<g>
		<g>
			<polygon class="st1" points="741.68,510.92 720.09,501.64 723.79,492.35 740.02,495.46 739.71,490.28 757.18,500.44 
				754.65,510.61 			"/>
		</g>
		<g>
			<path class="st2" d="M955.57,446.06c-1.64-0.9-3.53-1.59-5.67-2.05c-8.85-1.89-18.23,0.51-26.22,4.81
				c-12.65,6.81-23.24,17.63-35.04,25.82c-13.49,9.37-26.99,18.73-40.48,28.1l-95.71-7.69l-3.96,20.41
				c0,0,113.73,31.33,113.73,31.33c17.31-13.3,34.17-26.37,52.18-38.49c16.15-10.87,35.78-19.26,46.03-36.6
				C966.22,461.9,964.6,450.98,955.57,446.06z"/>
		</g>
	</g>
	<path class="st21" d="M903.76,341.06c-3.18-5.04-5.59-10.99-9.16-15.15c-4.33-5.04-11.72-7.66-13.88-13.94
		c-2.62-7.65,2.07-16.4,9.14-19.54c4.26-1.89,9.05-2.24,13.7-1.99c2.31,0.13,4.65,0.4,6.78,1.29c4.01,1.66,7.02,5.54,7.62,9.84
		c0.43,3.08-0.27,6.36,0.93,9.22c4.01,9.55,15.39,10.86,24.02,13.1c8.82,2.28,17.01,2.66,24.62,8.46
		c11.8,8.99,16.01,26.08,11.21,40.12c-4.8,14.03-17.58,24.61-31.93,28.37c-8.06,2.11-1.31-3.99,0.71-5.94
		c4.03-3.9,7.51-8.71,9.35-14.04c2.39-6.91,1.66-15.24-3.29-20.62c-4.36-4.75-11.05-6.46-17.36-7.8c-3.98-0.84-8.35-2.26-12.44-2.21
		c-2.86,0.04-5.2,0.76-8.12,0.21C910.12,349.38,906.62,345.59,903.76,341.06z"/>
	<g>
		<path class="st5" d="M983.64,408.08c2.71,2.7,6.27,5.4,9.99,4.5c2.52-0.61,4.42-2.84,5.27-5.29c0.85-2.45,0.81-5.12,0.61-7.71
			c-1.2-15.97-8.12-31.44-19.21-42.99c-2.12-2.21-4.81-4.42-7.85-4.06c-4.24,0.51-7.07,6.22-8.8,9.63
			c-1.36,2.66,3.82,6.15,5.06,8.95c1.5,3.4,1.91,7.32,0.92,10.92c-0.84,3.05-1.09,5.71,0.42,8.7
			C973.29,397.11,978.6,403.06,983.64,408.08z"/>
		<path class="st5" d="M941.12,334.26c4.82,4.72,9.51,9.61,13.55,15.01c7.81,10.44,11.65,22.27,17.55,33.67
			c3.15,6.09,7.01,1.63,10.82-2.3c3.87-3.99,6.86-8.83,8.61-14.11c3.01-9.05,2.34-19.25-1.83-27.83
			c-3.41-7.03-8.94-12.78-14.37-18.4c-7.18-7.43-19.11-10.88-29.44-10.68c-4.8,0.09-17.76,1.92-19.8,7.43
			C924.38,322.05,937.88,331.09,941.12,334.26z"/>
	</g>
</g>
</svg>
