<?xml version="1.0" encoding="utf-8"?>
<!-- Generator: Adobe Illustrator 24.2.1, SVG Export Plug-In . SVG Version: 6.00 Build 0)  -->
<svg version="1.1" id="_x2014_ÎÓÈ_x5F_1" xmlns="http://www.w3.org/2000/svg" xmlns:xlink="http://www.w3.org/1999/xlink"
	 x="0px" y="0px" viewBox="0 0 850.39 850.39" style="enable-background:new 0 0 850.39 850.39;" xml:space="preserve">
<style type="text/css">
	.st0{fill:#E76C44;stroke:#E76C44;stroke-width:2;stroke-miterlimit:10;}
</style>
<g>
	<g>
		<g>
			<path class="st0" d="M384.63,214.05c29.06,0,54.47,18.16,55.87,19.18c1.33,0.96,2.11,2.51,2.11,4.15v162.81
				c0,2.83-2.3,5.13-5.13,5.13h-18.24c-1.64,0-3.18-0.78-4.14-2.11l-91.17-125.03c-0.17-0.24-0.32-0.47-0.44-0.73l-3.91-7.82
				c-5.25-10.5-3.27-27.44,36.03-48.49C365.21,215.99,375.11,214.05,384.63,214.05 M384.63,206.57c-11.72,0-22.67,2.68-32.54,7.97
				c-19.17,10.27-31.49,20.42-37.66,31.04c-6.77,11.64-4.57,21.32-1.53,27.39l3.9,7.81c0.29,0.57,0.63,1.14,1.04,1.72
				c0.02,0.03,0.04,0.05,0.06,0.08l91.17,125.03c2.36,3.24,6.17,5.18,10.19,5.18h18.24c6.95,0,12.61-5.66,12.61-12.61V237.37
				c0-4.02-1.94-7.83-5.19-10.2c-0.79-0.57-8.02-5.75-18.84-10.72C411.78,209.9,397.84,206.57,384.63,206.57L384.63,206.57z"/>
			<path class="st0" d="M518.25,336.44c0.54,0,1.09,0.09,1.63,0.27c25.9,8.63,71.92,36.28,60.64,79.1c-0.5,1.92-2.07,3.38-4.02,3.74
				l-97.69,18.23c-0.31,0.06-0.63,0.09-0.94,0.09c-1.72,0-3.36-0.87-4.31-2.35l-11.72-18.24c-1.14-1.77-1.08-4.05,0.14-5.76
				l52.1-72.94C515.06,337.21,516.62,336.44,518.25,336.44 M518.25,328.96c-4.06,0-7.89,1.97-10.26,5.28l-52.1,72.94
				c-3.02,4.23-3.15,9.78-0.35,14.15l11.72,18.24c2.33,3.63,6.29,5.79,10.6,5.79c0.79,0,1.58-0.07,2.34-0.22l97.66-18.23
				c4.77-0.9,8.65-4.51,9.88-9.19c5.62-21.34-0.72-41.94-18.32-59.56c-17.81-17.82-40.62-26.35-47.19-28.54
				C520.95,329.18,519.6,328.96,518.25,328.96L518.25,328.96z"/>
			<path class="st0" d="M299.42,395.05c0.5,0,1,0.07,1.49,0.22l108.11,32.56c2.53,0.76,4.07,3.33,3.55,5.91l-5.21,26.05
				c-0.33,1.66-1.46,3.04-3.02,3.71c-2.91,1.24-71.77,30.37-112.72,30.37c-1.18,0-2.33-0.41-3.25-1.16
				c-31.62-25.87,5.02-92.23,6.59-95.04C295.88,396.03,297.6,395.05,299.42,395.05 M299.42,387.57c-4.55,0-8.76,2.47-10.99,6.46
				c-1.09,1.95-10.84,19.67-16.44,40.59c-3.35,12.52-4.56,23.78-3.6,33.48c1.29,12.97,6.42,23.2,15.24,30.42
				c2.24,1.84,5.08,2.85,7.98,2.85c17.85,0,42.39-5.08,72.96-15.09c22.76-7.46,40.72-15.03,42.69-15.87
				c3.84-1.64,6.61-5.05,7.42-9.13l5.21-26.05c1.28-6.41-2.47-12.66-8.73-14.55l-108.1-32.56
				C301.9,387.76,300.66,387.57,299.42,387.57L299.42,387.57z"/>
			<path class="st0" d="M437.5,483.62c2.83,0,5.13,2.3,5.13,5.13v106.81c0,2.05-1.22,3.89-3.09,4.7
				c-1.82,0.79-27.66,11.76-53.47,11.76c-18.46,0-36.9-5.61-46.55-24.56c-0.72-1.41-0.74-3.08-0.07-4.51
				c16.61-35.26,62.1-94.8,64.03-97.32c0.97-1.27,2.47-2.01,4.07-2.01H437.5 M437.5,476.14h-29.96c-3.91,0-7.65,1.85-10.02,4.95
				c-1.94,2.53-47.86,62.6-64.85,98.67c-1.65,3.5-1.58,7.64,0.17,11.09c5.25,10.32,13.15,17.98,23.49,22.78
				c8.39,3.89,18.39,5.87,29.73,5.87c27.69,0,55.3-11.88,56.46-12.39c4.6-1.98,7.58-6.52,7.58-11.56V488.75
				C450.1,481.8,444.45,476.14,437.5,476.14L437.5,476.14z"/>
			<path class="st0" d="M481.78,462.78c0.55,0,1.12,0.09,1.66,0.28l95.39,32.56c2.29,0.78,3.72,3.05,3.43,5.45
				c-0.39,3.31-10.2,81.16-60.31,83.97c-0.1,0.01-0.19,0.01-0.29,0.01c-1.71,0-3.32-0.85-4.27-2.29
				c-13.74-20.71-53.94-88.52-55.64-91.4c-1.06-1.79-0.94-4.03,0.31-5.69l15.63-20.84C478.66,463.52,480.19,462.78,481.78,462.78
				 M481.77,455.3c-3.95,0-7.72,1.89-10.09,5.06l-15.62,20.83c-3.07,4.1-3.37,9.59-0.76,13.99c0.41,0.69,41.66,70.34,55.85,91.72
				c2.35,3.53,6.27,5.64,10.51,5.64c0.15,0,0.41,0,0.74-0.02c23.58-1.34,42.67-17.34,55.22-46.29c9.15-21.12,11.8-41.96,12.08-44.27
				c0.7-5.86-2.85-11.5-8.45-13.41l-95.39-32.56C484.55,455.54,483.17,455.3,481.77,455.3L481.77,455.3z"/>
		</g>
	</g>
</g>
</svg>
