<svg width="840" height="677" viewBox="0 0 840 677" fill="none" xmlns="http://www.w3.org/2000/svg">
<path d="M10.9675 433.308C6.6112 419.454 -22.2287 322.221 43.8927 256.975C46.6076 254.294 59.8747 240.942 83.6106 228.261C122.875 207.268 176.031 198.811 274.603 201.882C575.06 211.237 641.193 89.978 641.193 89.978C641.193 89.978 715.571 -16.2036 824.952 3.86757C824.952 3.86757 1055.81 60.5309 933.321 340.42C912.472 383.218 876.313 442.806 814.032 501.198C666.472 639.551 483.625 666.792 431.926 672.919C392.764 677.561 294.139 682.156 193.997 635.149C64.6727 574.426 22.3702 466.803 10.9675 433.308Z" fill="url(#paint0_linear)" stroke="black" stroke-miterlimit="10"/>
<defs>
<linearGradient id="paint0_linear" x1="44.5733" y1="537.674" x2="992.997" y2="232.283" gradientUnits="userSpaceOnUse">
<stop offset="0.00315569" stop-color="#FF7844"/>
<stop offset="1" stop-color="#A64942"/>
</linearGradient>
</defs>
</svg>
