<svg width="460" height="330" viewBox="0 0 460 330" fill="none" xmlns="http://www.w3.org/2000/svg">
<path d="M140.153 122.216C139.621 123.166 139.93 124.278 140.839 124.684C141.748 125.09 142.927 124.649 143.459 123.698L160.727 92.8314C161.259 91.8807 160.95 90.7689 160.04 90.3628C159.131 89.9568 157.952 90.3983 157.421 91.349L140.153 122.216Z" fill="#6D432C"/>
<path d="M385.555 154.049C391.553 167.478 410.352 209.556 386.921 251.928C364.287 292.855 312.548 315.437 270.005 312.079C232.375 309.107 230.057 288.06 172.248 269.411C113.393 250.423 97.0849 266.204 73.1182 249.478C17.4187 210.61 30.8054 73.2475 105.864 28.0337C114.436 22.871 140.648 7.07995 164.532 14.5758C198.073 25.101 189.437 69.7445 225.694 86.8923C257.869 102.11 279.841 74.1305 321.432 87.9847C362.088 101.523 379.794 141.155 385.555 154.049Z" fill="url(#paint0_linear)"/>
<path d="M177.014 216.057C191.543 220.565 215.341 225.853 244.109 222.753C255.616 221.513 265.661 219.173 274.016 216.604C274.868 207.365 275.536 197.742 275.964 187.765C276.359 178.619 276.524 169.76 276.51 161.21C276.654 151.32 275.608 135.684 268.482 118.001C261.654 101.056 254.678 83.7472 239.76 81.2819C225.896 78.9906 209.113 90.1732 198.731 108.065C195.281 114.843 192.003 122.187 189.078 130.095C176.952 162.87 175.414 193.008 177.014 216.057Z" fill="#FFAB5E"/>
<path d="M221.325 138.568C221.325 138.568 236.911 158.358 260.507 159.954C260.507 159.954 272.974 146.802 276.686 126.48C276.686 126.48 280.992 99.648 262.437 99.5159C262.437 99.5159 238.69 96.4608 221.325 138.568Z" fill="#FFAB5E"/>
<path d="M208.937 31.4949C208.937 31.4949 200.082 20.931 212.272 13.809C212.272 13.809 218.816 9.90311 230.108 17.0252C230.647 17.4055 231.427 17.8534 232.451 18.1434C235.11 18.9008 237.45 18.0371 238.169 17.7406C239.117 17.2733 241.033 16.5031 243.372 16.7641C246.981 17.167 250.093 19.8514 251.279 23.5672C251.724 24.795 252.439 26.3612 253.622 28.0306C254.984 29.9577 256.49 31.3434 257.665 32.2716C259.278 33.3512 261.46 35.1591 262.976 37.9209C267.163 45.5586 262.401 53.4992 261.805 54.4563C261.805 54.4563 252.051 71.7974 243.326 60.4279L223.309 42.2844C223.309 42.2876 213.555 38.0401 208.937 31.4949Z" fill="#23425F"/>
<path d="M244.616 89.6026C244.616 89.6026 238.226 93.676 228.929 90.2084L230.381 77.6433C230.381 77.6433 212.373 75.4776 216.437 50.7792C216.437 50.7792 217.598 43.1544 225.346 35.5264L241.313 44.7689C241.313 44.7689 246.222 47.8434 246.715 54.7656C246.715 54.7656 249.823 52.094 253.058 55.1685C253.058 55.1685 256.331 57.84 253.589 61.2109C253.589 61.2109 251.052 64.6173 248.231 62.6031L248.968 65.4584L246.021 70.4761L244.616 89.6026Z" fill="#EAA58B"/>
<path d="M168.877 329.011H207.614C213.627 318.801 220.099 305.244 224.297 288.676C231.89 258.699 228.401 233.185 224.807 217.758C209.203 217.191 193.599 216.624 177.995 216.057C175.734 233.153 173.787 250.952 172.245 269.414C170.527 290.046 169.445 309.936 168.877 329.011Z" fill="#18559E"/>
<path d="M272.054 329.01H217.868C217.868 329.01 200.481 274.293 193.818 217.758L274.016 216.601C274.016 216.601 283.644 268.585 272.054 329.01Z" fill="#23425F"/>
<path d="M228.822 139.297C228.822 139.297 220.056 146.979 220.43 153.824C220.43 153.824 174.153 117.753 162.398 110.905C162.398 110.905 152.135 94.8723 145.978 102.22C145.978 102.22 137.58 111.069 155.121 123.261C155.121 123.261 186.785 161.672 198.85 170.521C198.85 170.521 220.056 189.393 229.76 185.551C229.76 185.551 248.792 175.197 257.751 156.161L228.822 139.297Z" fill="#EAA58B"/>
<path d="M128.398 126.028C128.398 126.028 188.694 149.924 191.777 148.742L186.203 166.992C186.203 166.992 137.35 149.399 122.533 137.975L128.398 126.028Z" fill="#EAA58B"/>
<path d="M110.362 77.7934L104.977 137.36L139.184 139.847L144.569 80.2801L110.362 77.7934Z" fill="#F8F8F8"/>
<path d="M108.247 99.9407C110.615 97.6945 113.839 96.9404 115.974 97.9717C118.41 99.1479 118.734 102.255 118.712 103.589C118.691 104.881 118.468 106.799 117.458 108.9C115.489 112.996 111.841 115.042 110.45 115.738C109.904 115.925 108.603 116.28 107.252 115.819C105.275 115.145 103.985 112.992 104.298 110.53C104.287 109.354 104.409 107.868 104.876 106.202C105.688 103.315 107.176 101.207 108.247 99.9407Z" fill="#D69B87"/>
<defs>
<linearGradient id="paint0_linear" x1="78.6002" y1="49.1803" x2="309.668" y2="325.521" gradientUnits="userSpaceOnUse">
<stop stop-color="#A64942"/>
<stop offset="1" stop-color="#FF7844"/>
</linearGradient>
</defs>
</svg>
