<svg width="446" height="413" viewBox="0 0 446 413" fill="none" xmlns="http://www.w3.org/2000/svg">
<g clip-path="url(#clip0)">
<path d="M314.603 43.3785C366.708 50.8022 432.081 79.0022 443.951 120.542C455.828 162.19 414.227 217.076 374.625 260.989C335.036 305.003 297.483 338.05 251.475 360.315C205.473 382.485 151.116 394.031 114.531 373.121C78.0467 352.357 59.46 299.195 37.8123 252.375C16.0951 205.454 -8.7273 164.773 3.02934 136.255C14.8113 107.845 63.1723 91.5914 99.549 81.3687C135.926 71.1459 160.21 66.8393 191.882 58.1242C223.446 49.2946 262.39 35.9548 314.603 43.3785Z" fill="url(#paint0_linear)"/>
<path d="M148.776 22.5898C140.422 22.5898 137.81 35.7197 137.81 40.9679C137.81 49.8738 147.208 86.6553 156.081 86.6553C164.953 86.6553 174.357 50.3954 174.357 46.2224C174.357 42.0493 163.391 22.5898 148.776 22.5898Z" fill="#EAA58B"/>
<path d="M187.266 0.292955L312.845 25.0769C321.534 26.7945 327.194 35.2678 325.493 44.0084L277.575 289.698C275.867 298.438 267.443 304.132 258.754 302.42L133.175 277.636C124.485 275.919 118.825 267.446 120.527 258.705L168.445 13.0094C170.152 4.27518 178.582 -1.41826 187.266 0.292955Z" fill="#23425F"/>
<path d="M284.076 19.4601L282.489 27.5963C281.673 31.7376 277.676 34.4411 273.553 33.6333L219.405 22.9461C215.288 22.1192 212.606 18.1051 213.403 13.9575L215.022 5.82129" fill="#FFAB5E"/>
<path d="M123.024 245.906L281.888 279.692" stroke="#FFAB5E" stroke-width="3" stroke-miterlimit="10"/>
<path d="M196.474 282.751C199.977 282.751 202.817 279.895 202.817 276.371C202.817 272.847 199.977 269.99 196.474 269.99C192.97 269.99 190.13 272.847 190.13 276.371C190.13 279.895 192.97 282.751 196.474 282.751Z" fill="#FFAB5E"/>
<path d="M138.86 93.5127C127.894 93.5127 120.583 101.91 120.583 110.841C120.583 140.243 137.292 164.398 144.615 164.398C160.274 164.398 166.016 155.994 166.016 150.218C166.004 145.988 163.917 93.5127 138.86 93.5127Z" fill="#EAA58B"/>
<path d="M133.118 170.67C136.248 173.819 160.261 199.551 160.261 217.401C160.261 229.487 157.649 238.928 135.723 238.928C125.282 238.928 96.0518 197.445 96.0518 180.645C96.0518 171.192 101.794 149.137 117.978 149.137C122.677 149.137 133.118 157.54 134.68 159.639C136.286 161.312 137.994 162.896 139.79 164.366C139.132 167.782 135.502 185.753 135.502 185.753" fill="#EAA58B"/>
<path d="M129.216 276.307C127.654 280.511 126.591 321.11 131.29 343.686C128.128 359.965 115.625 413.025 115.625 413.025H228.935L240.42 366.816C240.42 366.816 310.34 305.346 317.126 294.328C323.912 283.31 339.836 218.978 339.608 212.941C339.425 208.742 263.389 144.149 261.302 141.522C259.215 138.894 222.497 175.873 283.576 218.431C283.051 223.679 283.083 246.86 283.083 246.86C283.083 246.86 240.597 261.548 236.284 264.716C231.971 267.884 223.718 290.206 222.225 295.213C216.451 294.08 129.216 276.307 129.216 276.307Z" fill="#EAA58B"/>
</g>
<defs>
<linearGradient id="paint0_linear" x1="0.00458853" y1="212.659" x2="446.013" y2="212.659" gradientUnits="userSpaceOnUse">
<stop stop-color="#A64942"/>
<stop offset="1" stop-color="#FF7844"/>
</linearGradient>
<clipPath id="clip0">
<rect width="446" height="413" fill="white"/>
</clipPath>
</defs>
</svg>
