<?xml version="1.0" encoding="utf-8"?>
<!-- Generator: Adobe Illustrator 24.2.1, SVG Export Plug-In . SVG Version: 6.00 Build 0)  -->
<svg version="1.1" id="Layer_1" xmlns="http://www.w3.org/2000/svg" xmlns:xlink="http://www.w3.org/1999/xlink" x="0px" y="0px"
	 viewBox="0 0 1000 1000" style="enable-background:new 0 0 1000 1000;" xml:space="preserve">
<style type="text/css">
	.st0{fill:url(#SVGID_1_);stroke:#000000;stroke-miterlimit:10;}
</style>
<linearGradient id="SVGID_1_" gradientUnits="userSpaceOnUse" x1="-0.5" y1="469.5382" x2="1000" y2="469.5382">
	<stop  offset="3.155692e-03" style="stop-color:#FF7844"/>
	<stop  offset="1" style="stop-color:#A64942"/>
</linearGradient>
<path class="st0" d="M-0.5,328.77c0.1-18.64,2.46-148.7,85.74-198.32c3.42-2.04,20.21-12.31,46.8-17.16
	c43.99-8.04,97.4,5.17,190.67,52.3c284.3,143.65,384.83,26.43,384.83,26.43s103.77-95.39,202.14-22.98c0,0,203.22,170.09,0,453.94
	c-33.1,42.47-86,98.46-163.5,141.5c-183.62,101.98-366.77,54.31-418.07,38.93c-38.86-11.65-134.54-49.55-215.79-150.4
	C7.4,522.75,0.09,374.22-0.5,328.77z"/>
</svg>
