<?xml version="1.0" encoding="utf-8"?>
<!-- Generator: Adobe Illustrator 24.2.1, SVG Export Plug-In . SVG Version: 6.00 Build 0)  -->
<svg version="1.1" id="Layer_1" xmlns="http://www.w3.org/2000/svg" xmlns:xlink="http://www.w3.org/1999/xlink" x="0px" y="0px"
	 viewBox="0 0 1280 1024" style="enable-background:new 0 0 1280 1024;" xml:space="preserve">
<style type="text/css">
	.st0{fill:#6D432C;}
	.st1{fill:url(#SVGID_1_);}
	.st2{fill:#FFAB5E;}
	.st3{fill:#23425F;}
	.st4{fill:#EAA58B;}
	.st5{fill:#18559E;}
	.st6{fill:none;stroke:#000000;stroke-width:2;stroke-miterlimit:10;}
	.st7{fill:#F8F8F8;}
	.st8{fill:#D69B87;}
</style>
<g>
	<path class="st0" d="M389.99,379.24c-1.48,2.95-0.62,6.4,1.91,7.66c2.53,1.26,5.81-0.11,7.29-3.06l48.05-95.78
		c1.48-2.95,0.62-6.4-1.91-7.66s-5.81,0.11-7.29,3.06L389.99,379.24z"/>
</g>
<linearGradient id="SVGID_1_" gradientUnits="userSpaceOnUse" x1="2.3639" y1="627.3218" x2="1067.9655" y2="627.3218" gradientTransform="matrix(0.682 0.7314 -0.7314 0.682 675.9252 -276.9536)">
	<stop  offset="0" style="stop-color:#A64942"/>
	<stop  offset="1" style="stop-color:#FF7844"/>
</linearGradient>
<path class="st1" d="M1072.85,478.02c16.69,41.67,69,172.24,3.8,303.72c-62.98,127-206.95,197.07-325.33,186.65
	c-104.71-9.22-111.16-74.53-272.02-132.4c-163.77-58.92-209.15-9.95-275.84-61.85C48.47,653.53,85.72,227.29,294.58,86.99
	c23.85-16.02,96.79-65.02,163.25-41.76c93.33,32.66,69.3,171.19,170.19,224.4c89.53,47.22,150.67-39.6,266.4,3.39
	C1007.55,315.03,1056.82,438.01,1072.85,478.02z"/>
<path class="st2" d="M492.56,670.43c40.43,13.99,106.65,30.4,186.7,20.78c32.02-3.85,59.97-11.11,83.22-19.08
	c2.37-28.67,4.23-58.53,5.42-89.49c1.1-28.38,1.56-55.87,1.52-82.4c0.4-30.69-2.51-79.21-22.34-134.08
	c-19-52.58-38.41-106.29-79.92-113.94c-38.58-7.11-85.28,27.59-114.17,83.11c-9.6,21.03-18.72,43.82-26.86,68.36
	C492.39,505.39,488.11,598.91,492.56,670.43z"/>
<path class="st2" d="M615.86,429.98c0,0,43.37,61.41,109.03,66.36c0,0,34.69-40.81,45.02-103.87c0,0,11.98-83.26-39.65-83.67
	C730.26,308.8,664.18,299.32,615.86,429.98z"/>
<path class="st3" d="M581.39,97.73c0,0-24.64-32.78,9.28-54.88c0,0,18.21-12.12,49.63,9.98c1.5,1.18,3.67,2.57,6.52,3.47
	c7.4,2.35,13.91-0.33,15.91-1.25c2.64-1.45,7.97-3.84,14.48-3.03c10.04,1.25,18.7,9.58,22,21.11c1.24,3.81,3.23,8.67,6.52,13.85
	c3.79,5.98,7.98,10.28,11.25,13.16c4.49,3.35,10.56,8.96,14.78,17.53c11.65,23.7-1.6,48.34-3.26,51.31c0,0-27.14,53.81-51.42,18.53
	l-55.7-56.3C621.38,131.22,594.24,118.04,581.39,97.73z"/>
<path class="st4" d="M680.67,278.04c0,0-17.78,12.64-43.65,1.88l4.04-38.99c0,0-50.11-6.72-38.8-83.36c0,0,3.23-23.66,24.79-47.33
	l44.43,28.68c0,0,13.66,9.54,15.03,31.02c0,0,8.65-8.29,17.65,1.25c0,0,9.11,8.29,1.48,18.75c0,0-7.06,10.57-14.91,4.32l2.05,8.86
	l-8.2,15.57L680.67,278.04z"/>
<path class="st5" d="M469.92,1020.93h107.79c16.73-31.68,34.74-73.75,46.42-125.16c21.13-93.02,11.42-172.19,1.42-220.06
	c-43.42-1.76-86.84-3.52-130.26-5.28c-6.29,53.05-11.71,108.28-16,165.57C474.51,900.02,471.5,961.74,469.92,1020.93z"/>
<path class="st3" d="M757.02,1020.93H606.24c0,0-48.38-169.79-66.92-345.22l223.16-3.59C762.48,672.12,789.27,833.43,757.02,1020.93
	z"/>
<path class="st6" d="M717.28-3.07"/>
<path class="st4" d="M636.72,432.24c0,0-24.39,23.84-23.35,45.08c0,0-128.77-111.93-161.48-133.18c0,0-28.56-49.75-45.69-26.95
	c0,0-23.37,27.46,25.44,65.29c0,0,88.11,119.19,121.68,146.65c0,0,59.01,58.56,86.01,46.64c0,0,52.96-32.13,77.89-91.2
	L636.72,432.24z"/>
<path class="st4" d="M357.28,391.07c0,0,167.78,74.15,176.36,70.48l-15.51,56.63c0,0-135.94-54.59-177.17-90.04L357.28,391.07z"/>
<rect x="254.48" y="289.91" transform="matrix(0.0808 -0.9967 0.9967 0.0808 -17.4055 656.4506)" class="st7" width="185.45" height="95.5"/>
<path class="st8" d="M301.21,310.12c6.59-6.97,15.56-9.31,21.5-6.11c6.78,3.65,7.68,13.29,7.62,17.43
	c-0.06,4.01-0.68,9.96-3.49,16.48c-5.48,12.71-15.63,19.06-19.5,21.22c-1.52,0.58-5.14,1.68-8.9,0.25
	c-5.5-2.09-9.09-8.77-8.22-16.41c-0.03-3.65,0.31-8.26,1.61-13.43C294.09,320.59,298.23,314.05,301.21,310.12z"/>
</svg>
