<svg id="Layer_1" data-name="Layer 1" xmlns="http://www.w3.org/2000/svg" xmlns:xlink="http://www.w3.org/1999/xlink" viewBox="0 0 705.24 649.29"><defs><style>.cls-1{fill:url(#linear-gradient);}.cls-2{fill:#eaa58b;}.cls-3{fill:#23425f;}.cls-4{fill:#ffab5e;}.cls-5{fill:none;stroke:#ffab5e;stroke-miterlimit:10;stroke-width:3px;}</style><linearGradient id="linear-gradient" x1="0.01" y1="334.3" x2="705.25" y2="334.3" gradientUnits="userSpaceOnUse"><stop offset="0" stop-color="#a64942"/><stop offset="1" stop-color="#ff7844"/></linearGradient></defs><g id="Layer_2" data-name="Layer 2"><g id="Vector"><path class="cls-1" d="M497.46,68.19c82.39,11.67,185.76,56,204.53,121.3C720.77,255,655,341.24,592.37,410.27c-62.6,69.19-122,121.14-194.73,156.14S239,619.41,181.1,586.54C123.41,553.9,94,470.33,59.79,396.73,25.45,323-13.8,259,4.79,214.19c18.63-44.66,95.1-70.21,152.62-86.28s95.92-22.84,146-36.54C353.32,77.49,414.9,56.52,497.46,68.19Z" transform="translate(-0.01 0.02)"/><path class="cls-2" d="M235.25,35.51c-13.21,0-17.34,20.64-17.34,28.89,0,14,14.86,71.82,28.89,71.82s28.9-57,28.9-63.56S258.36,35.51,235.25,35.51Z" transform="translate(-0.01 0.02)"/><rect class="cls-3" x="130.49" y="111.4" width="444.29" height="253.06" rx="25.35" transform="translate(51.26 538.18) rotate(-78.9)"/><path class="cls-4" d="M449.19,30.59l-2.51,12.79a12.06,12.06,0,0,1-14.13,9.49l-85.62-16.8a12.07,12.07,0,0,1-9.49-14.13L340,9.15" transform="translate(-0.01 0.02)"/><line class="cls-5" x1="194.52" y1="386.58" x2="445.72" y2="439.69"/><circle class="cls-4" cx="310.66" cy="434.47" r="10.03"/><path class="cls-2" d="M219.57,147c-17.34,0-28.9,13.2-28.9,27.24,0,46.22,26.42,84.19,38,84.19,24.76,0,33.84-13.21,33.84-22.29C262.49,229.49,259.19,147,219.57,147Z" transform="translate(-0.01 0.02)"/><path class="cls-2" d="M210.49,268.29c4.95,4.95,42.92,45.4,42.92,73.46,0,19-4.13,33.84-38.8,33.84-16.51,0-62.73-65.21-62.73-91.62,0-14.86,9.08-49.53,34.67-49.53,7.43,0,23.94,13.21,26.41,16.51a91.65,91.65,0,0,0,8.08,7.43c-1,5.37-6.78,33.62-6.78,33.62" transform="translate(-0.01 0.02)"/><path class="cls-2" d="M204.32,434.35c-2.47,6.61-4.15,70.43,3.28,105.92-5,25.59-24.77,109-24.77,109H362l18.16-72.64S490.72,480,501.45,462.68,537.36,344.23,537,334.74c-.29-6.6-120.52-108.14-123.82-112.27s-61.36,54,35.22,120.9c-.83,8.25-.78,44.69-.78,44.69s-67.18,23.09-74,28.07-19.87,40.07-22.23,47.94C342.26,462.29,204.32,434.35,204.32,434.35Z" transform="translate(-0.01 0.02)"/></g></g></svg>