<?xml version="1.0" encoding="utf-8"?>
<!-- Generator: Adobe Illustrator 24.2.1, SVG Export Plug-In . SVG Version: 6.00 Build 0)  -->
<svg version="1.1" id="Layer_1" xmlns="http://www.w3.org/2000/svg" xmlns:xlink="http://www.w3.org/1999/xlink" x="0px" y="0px"
	 viewBox="0 0 840 677" style="enable-background:new 0 0 840 677;" xml:space="preserve">
<style type="text/css">
	.st0{fill:url(#SVGID_1_);}
</style>
<linearGradient id="SVGID_1_" gradientUnits="userSpaceOnUse" x1="284.6468" y1="326.1514" x2="920.4972" y2="530.8942">
	<stop  offset="3.155690e-03" style="stop-color:#FF7844"/>
	<stop  offset="1" style="stop-color:#A64942"/>
</linearGradient>
<path class="st0" d="M404.3,340.1c-10.3-0.8-82.1-5.5-127,44.7c-48.2,53.8-46.9,149.8,14.5,220.9c0,0,132.4,208.6,432.1,68.9
	c0,0,255.8-123.9,247-362.9c0,0-7.7-84.6-70.1-118.9c-27-14.9-54.8-14.6-62.5-14.2c-0.8,0-1.6,0.1-1.6,0.1
	c-22.6,1.3-39.2,10-47.1,14.2c-23.5,12.6-38.2,30.4-45,39.7c-12.9,16.9-26.4,30.8-39.6,42.1C598.4,366.3,450.9,347.8,404.3,340.1z"
	/>
</svg>
