<svg width="385" height="368" viewBox="0 0 385 368" fill="none" xmlns="http://www.w3.org/2000/svg">
<path d="M332.17 66.9527C351.784 89.4818 359.703 119.68 359.971 150.129C360.314 180.489 353.001 211.27 333.387 252.111C313.774 292.952 281.683 343.889 239.009 354.094C196.334 364.299 142.978 333.798 102.47 292.952C61.8488 252.106 33.9727 200.951 43.8009 159.115C53.5058 117.28 100.738 84.8531 141.348 62.2459C181.954 39.7168 215.771 27.0959 248.462 28.2517C281.067 29.4128 312.557 44.434 332.17 66.9527Z" fill="url(#paint0_linear)"/>
<path d="M134.796 162.338L128.681 163.471L150.91 276.618L157.025 275.486L134.796 162.338Z" fill="#DFDFDF"/>
<path d="M130.421 155.455C127.483 155.455 107.944 152.93 107.022 152.93C106.094 152.93 103.837 153.497 103.837 154.965C103.837 159.933 120.271 164.332 136.968 164.332C153.664 164.332 130.421 155.455 130.421 155.455Z" fill="#494949"/>
<path d="M75.6876 333.772C110.888 333.772 139.424 306.062 139.424 271.881C139.424 237.699 110.888 209.989 75.6876 209.989C40.4872 209.989 11.9517 237.699 11.9517 271.881C11.9517 306.062 40.4872 333.772 75.6876 333.772Z" stroke="#494949" stroke-width="16" stroke-linecap="round" stroke-linejoin="round"/>
<path d="M303.05 333.772C338.25 333.772 366.786 306.062 366.786 271.881C366.786 237.699 338.25 209.989 303.05 209.989C267.85 209.989 239.314 237.699 239.314 271.881C239.314 306.062 267.85 333.772 303.05 333.772Z" stroke="#494949" stroke-width="16" stroke-linecap="round" stroke-linejoin="round"/>
<path d="M261.534 152.99L220.716 167.059L222.164 171.018L262.982 156.95L261.534 152.99Z" fill="#494949"/>
<path d="M246.133 161.809L241.223 164.419L299.119 267.107L304.029 264.496L246.133 161.809Z" fill="#DFDFDF"/>
<path d="M271.335 208.734H135.976V212.473H271.335V208.734Z" fill="#DFDFDF"/>
<path d="M265.73 206.147L156.878 287.05L162.484 294.161L271.335 213.258L265.73 206.147Z" fill="#DFDFDF"/>
<path d="M79.4941 265.805C89.6333 265.805 156.093 269.928 156.093 269.928C153.353 277.915 143.895 301.866 143.895 301.866C139.096 300.538 81.5477 274.588 81.5477 274.588L79.4941 265.805Z" fill="#DFDFDF"/>
<path d="M138.868 205.761L71.4971 267.906L76.2237 272.738L143.595 210.592L138.868 205.761Z" fill="#DFDFDF"/>
<path d="M149.975 305.271C159.685 305.271 167.557 297.627 167.557 288.199C167.557 278.77 159.685 271.126 149.975 271.126C140.265 271.126 132.394 278.77 132.394 288.199C132.394 297.627 140.265 305.271 149.975 305.271Z" fill="#DFDFDF"/>
<path d="M146.946 241.344C145.375 242.671 135.515 251.59 135.515 251.59L159.037 277.374L163.385 273.542L154.147 248.513L146.946 241.344Z" fill="black"/>
<path d="M180.849 136.841C186.211 138.606 223.55 169.388 227.577 175.146C224.435 189.105 159.852 247.347 153.343 249.81C149.857 247.805 146.206 243.494 146.206 241.026C148.104 238.079 177.46 193.323 177.46 193.323C177.46 193.323 157.729 134.352 180.849 136.841Z" fill="#23425F"/>
<path d="M232.836 171.569C236.592 171.014 239.09 167.073 238.415 162.766C237.74 158.46 234.149 155.418 230.393 155.973C226.637 156.528 224.139 160.469 224.814 164.776C225.488 169.082 229.08 172.124 232.836 171.569Z" fill="#EAA58B"/>
<path d="M250.431 166.392C253.909 165.878 256.236 162.314 255.627 158.43C255.019 154.547 251.706 151.816 248.228 152.329C244.75 152.843 242.424 156.408 243.033 160.291C243.641 164.174 246.954 166.906 250.431 166.392Z" fill="#EAA58B"/>
<path d="M137.837 109.173C134.04 111.459 120.952 125.6 120.952 141.074C120.952 161 162.179 192.161 177.101 201.934C174.222 209.172 145.686 268.647 144.753 271.448C146.978 273.229 153.654 275.645 156.142 275.645C169.879 264.971 208.092 208.406 208.752 202.95C209.411 197.493 176.951 138.007 176.951 138.007L137.837 109.173Z" fill="#18559E"/>
<path d="M215.932 89.0488C216.436 92.3603 218.393 106.226 219.336 107.85C220.28 109.474 247.105 150.378 248.553 152.419C248.333 154.179 245.218 157.068 243.046 156.714C240.29 154.814 214.623 122.897 214.623 122.897C214.623 122.897 188.308 89.5435 215.932 89.0488Z" fill="#EAA58B"/>
<path d="M207.76 69.764C213.32 68.1447 218.468 83.7021 217.524 89.5492C214.489 93.0689 206.286 93.8447 204.259 92.9283C203.739 89.898 202.028 71.4301 207.76 69.764Z" fill="#FFAB5E"/>
<path d="M191.283 50.458C199.417 50.458 210.993 59.5332 210.993 68.65C210.993 89.1225 186.618 140.876 179.214 142.563C168.833 144.932 135.965 115.192 135.965 109.772C135.976 98.5517 174.892 50.458 191.283 50.458Z" fill="#FFAB5E"/>
<path d="M200.409 37.7334C200.087 39.0611 194.184 49.2869 191.621 52.0412C191.895 53.3741 197.433 58.0861 200.409 57.9299C201.46 56.3992 205.535 49.4431 207.052 48.3549C208.57 47.2668 205.074 38.0874 200.409 37.7334Z" fill="#EAA58B"/>
<path d="M225.273 40.7739C230.35 32.2349 229.371 22.456 223.085 18.932C216.8 15.408 207.589 19.4735 202.512 28.0124C197.435 36.5514 198.414 46.3304 204.7 49.8544C210.985 53.3784 220.196 49.3129 225.273 40.7739Z" fill="#EAA58B"/>
<path d="M200.891 29.0118C200.79 27.1374 204.146 17.5624 209.583 14.7768C215.02 11.9913 218.425 13.9073 222.215 13.9073C225.62 13.9073 228.328 12.2985 232.081 12.5223C236.96 12.8191 237.572 17.5103 238.333 19.7335C239.346 22.6805 244.295 22.9721 246.569 28.5692C247.786 31.5787 241.845 37.4517 236.708 37.4517C233.706 37.4517 229.127 35.7804 227.786 34.9994C228.07 33.854 228.29 32.6981 228.451 31.5318C226.639 31.5318 215.406 29.3502 214.489 29.3971C213.572 29.4439 210.216 32.7554 209.91 33.4478C208.87 33.1563 202.924 32.8126 200.891 29.0118Z" fill="#23425F"/>
<path d="M201.513 36.5201C203.882 36.5201 205.803 34.6552 205.803 32.3548C205.803 30.0543 203.882 28.1895 201.513 28.1895C199.144 28.1895 197.224 30.0543 197.224 32.3548C197.224 34.6552 199.144 36.5201 201.513 36.5201Z" fill="#EAA58B"/>
<path d="M182.666 56.1902C193.036 52.1186 207.325 77.9071 207.754 87.2321C205.969 90.0385 187.16 96.7863 183.342 96.25C177.814 90.0437 171.112 60.7304 182.666 56.1902Z" fill="#FFAB5E"/>
<path d="M184.307 94.8288C185.68 98.4213 191.412 114.952 193.154 119.331C194.891 123.71 220.784 156.632 224.767 159.818C229.48 161.088 231.362 159.115 231.797 156.585C230.858 154.049 211.711 113.562 210.264 109.689C208.816 105.815 205.111 89.341 205.041 87.1542C201.792 85.108 186.125 88.914 184.307 94.8288Z" fill="#EAA58B"/>
<path d="M145.788 270.553C144.876 272.375 139.423 284.34 139.423 284.34L171.519 299.064L173.959 293.884L155.327 274.416L145.788 270.553Z" fill="black"/>
<path d="M84.4153 272.172C84.5761 267.488 80.7958 263.564 75.9719 263.408C71.1479 263.252 67.107 266.923 66.9463 271.607C66.7856 276.291 70.5658 280.215 75.3898 280.371C80.2137 280.528 84.2546 276.857 84.4153 272.172Z" fill="black"/>
<path d="M303.05 280.367C307.877 280.367 311.79 276.568 311.79 271.88C311.79 267.193 307.877 263.394 303.05 263.394C298.223 263.394 294.311 267.193 294.311 271.88C294.311 276.568 298.223 280.367 303.05 280.367Z" fill="black"/>
<defs>
<linearGradient id="paint0_linear" x1="41.8178" y1="192.133" x2="359.98" y2="192.133" gradientUnits="userSpaceOnUse">
<stop stop-color="#A64942"/>
<stop offset="1" stop-color="#FF7844"/>
</linearGradient>
</defs>
</svg>
